<?xml version="1.0" encoding="UTF-8"?>
<!DOCTYPE svg PUBLIC "-//W3C//DTD SVG 1.1//EN" "http://www.w3.org/Graphics/SVG/1.1/DTD/svg11.dtd">
<svg xmlns="http://www.w3.org/2000/svg" version="1.1" width="512px" height="512px" style="shape-rendering:geometricPrecision; text-rendering:geometricPrecision; image-rendering:optimizeQuality; fill-rule:evenodd; clip-rule:evenodd" xmlns:xlink="http://www.w3.org/1999/xlink">
<g><path style="opacity:0.993" fill="#010101" d="M 96.5,-0.5 C 168.5,-0.5 240.5,-0.5 312.5,-0.5C 317.091,1.58833 320.591,4.92166 323,9.5C 324.403,20.1023 324.903,30.769 324.5,41.5C 333.839,41.3335 343.173,41.5002 352.5,42C 359.294,43.1462 363.794,46.9795 366,53.5C 366.5,63.828 366.666,74.1613 366.5,84.5C 376.506,84.3335 386.506,84.5002 396.5,85C 403.333,86.5 407.5,90.6667 409,97.5C 409.5,121.498 409.667,145.498 409.5,169.5C 417.571,169.137 425.571,169.637 433.5,171C 437,173.167 439.833,176 442,179.5C 443.472,204.769 443.972,230.102 443.5,255.5C 462.503,255.333 481.503,255.5 500.5,256C 505.355,258.357 509.021,261.857 511.5,266.5C 511.5,270.5 511.5,274.5 511.5,278.5C 484.871,351.212 458.705,424.212 433,497.5C 431.099,503.888 427.266,508.555 421.5,511.5C 282.167,511.5 142.833,511.5 3.5,511.5C 2.5,509.833 1.16667,508.5 -0.5,507.5C -0.5,396.5 -0.5,285.5 -0.5,174.5C 1.13988,172.045 3.47322,170.545 6.5,170C 32.4979,169.5 58.4979,169.333 84.5,169.5C 84.3333,116.832 84.5,64.1656 85,11.5C 87.0188,5.64984 90.8522,1.64984 96.5,-0.5 Z"/></g>
<g><path style="opacity:1" fill="#ccd5d9" d="M 289.5,16.5 C 289.5,24.8333 289.5,33.1667 289.5,41.5C 240.33,41.1678 191.33,41.5012 142.5,42.5C 135.11,43.3884 130.277,47.3884 128,54.5C 127.5,121.499 127.333,188.499 127.5,255.5C 118.833,255.5 110.167,255.5 101.5,255.5C 101.5,175.833 101.5,96.1667 101.5,16.5C 164.167,16.5 226.833,16.5 289.5,16.5 Z"/></g>
<g><path style="opacity:1" fill="#677f8a" d="M 289.5,16.5 C 295.167,16.5 300.833,16.5 306.5,16.5C 306.5,25.1667 306.5,33.8333 306.5,42.5C 251.833,42.5 197.167,42.5 142.5,42.5C 191.33,41.5012 240.33,41.1678 289.5,41.5C 289.5,33.1667 289.5,24.8333 289.5,16.5 Z"/></g>
<g><path style="opacity:1" fill="#5f7c89" d="M 332.5,59.5 C 332.5,67.8333 332.5,76.1667 332.5,84.5C 282.832,84.3333 233.166,84.5 183.5,85C 177.753,87.0789 173.586,90.9122 171,96.5C 170.5,149.499 170.333,202.499 170.5,255.5C 161.833,255.5 153.167,255.5 144.5,255.5C 144.5,190.167 144.5,124.833 144.5,59.5C 207.167,59.5 269.833,59.5 332.5,59.5 Z"/></g>
<g><path style="opacity:1" fill="#36464e" d="M 332.5,59.5 C 338.167,59.5 343.833,59.5 349.5,59.5C 349.5,67.8333 349.5,76.1667 349.5,84.5C 343.833,84.5 338.167,84.5 332.5,84.5C 332.5,76.1667 332.5,67.8333 332.5,59.5 Z"/></g>
<g><path style="opacity:1" fill="#454e53" d="M 391.5,255.5 C 391.5,204.5 391.5,153.5 391.5,102.5C 385.833,102.5 380.167,102.5 374.5,102.5C 312.167,102.5 249.833,102.5 187.5,102.5C 187.5,153.5 187.5,204.5 187.5,255.5C 186.501,204.336 186.168,153.003 186.5,101.5C 255.167,101.5 323.833,101.5 392.5,101.5C 392.832,153.003 392.499,204.336 391.5,255.5 Z"/></g>
<g><path style="opacity:1" fill="#627f8d" d="M 374.5,102.5 C 380.167,102.5 385.833,102.5 391.5,102.5C 391.5,153.5 391.5,204.5 391.5,255.5C 385.833,255.5 380.167,255.5 374.5,255.5C 374.5,204.5 374.5,153.5 374.5,102.5 Z"/></g>
<g><path style="opacity:1" fill="#ced6da" d="M 374.5,102.5 C 374.5,153.5 374.5,204.5 374.5,255.5C 362.495,255.667 350.495,255.5 338.5,255C 367.331,227.18 373.498,195.014 357,158.5C 335.614,126.029 305.781,113.863 267.5,122C 224.596,139.3 207.429,170.8 216,216.5C 220.508,231.689 228.675,244.522 240.5,255C 222.836,255.5 205.17,255.667 187.5,255.5C 187.5,204.5 187.5,153.5 187.5,102.5C 249.833,102.5 312.167,102.5 374.5,102.5 Z"/></g>
<g><path style="opacity:1" fill="#fae739" d="M 277.5,136.5 C 315.993,133.303 339.826,150.303 349,187.5C 350.694,206.752 345.027,223.419 332,237.5C 329.579,226.254 323.746,217.254 314.5,210.5C 323.807,199.492 325.974,187.159 321,173.5C 310.657,155.445 295.49,149.612 275.5,156C 258.156,165.856 252.323,180.356 258,199.5C 259.713,203.873 262.213,207.707 265.5,211C 255.759,217.308 249.592,226.141 247,237.5C 225.874,212.776 224.208,186.776 242,159.5C 251.537,148.157 263.371,140.49 277.5,136.5 Z"/></g>
<g><path style="opacity:1" fill="#cbd3d7" d="M 283.5,170.5 C 301.189,169.347 308.356,177.347 305,194.5C 299.814,203.451 292.314,206.284 282.5,203C 271.536,195.662 269.703,186.495 277,175.5C 279.326,173.934 281.492,172.268 283.5,170.5 Z"/></g>
<g><path style="opacity:1" fill="#2195f2" d="M 20.5,187.5 C 41.8333,187.5 63.1667,187.5 84.5,187.5C 84.5,210.833 84.5,234.167 84.5,257.5C 73.1147,258.731 61.7813,260.397 50.5,262.5C 49.5,262.167 48.5,261.833 47.5,261.5C 38.4864,236.812 29.4864,212.146 20.5,187.5 Z"/></g>
<g><path style="opacity:1" fill="#2193ee" d="M 409.5,187.5 C 415.167,187.5 420.833,187.5 426.5,187.5C 426.5,210.167 426.5,232.833 426.5,255.5C 420.833,255.5 415.167,255.5 409.5,255.5C 409.5,232.833 409.5,210.167 409.5,187.5 Z"/></g>
<g><path style="opacity:1" fill="#e41d61" d="M 280.5,221.5 C 290.756,219.963 300.089,222.13 308.5,228C 314.688,233.9 316.854,241.067 315,249.5C 298.287,257.306 281.453,257.473 264.5,250C 262.524,239.603 265.857,231.27 274.5,225C 276.727,224.059 278.727,222.892 280.5,221.5 Z"/></g>
<g><path style="opacity:1" fill="#3e50b3" d="M 16.5,228.5 C 22.1665,241.858 27.3332,255.525 32,269.5C 35.1481,275.989 40.3148,279.323 47.5,279.5C 58.1473,277.947 68.814,276.614 79.5,275.5C 58.9734,334.578 38.1401,393.578 17,452.5C 16.5,377.834 16.3333,303.167 16.5,228.5 Z"/></g>
<g><path style="opacity:1" fill="#2195f2" d="M 477.5,272.5 C 451.171,346.494 424.837,420.494 398.5,494.5C 272.5,494.5 146.5,494.5 20.5,494.5C 46.3349,420.496 72.6683,346.662 99.5,273C 225.5,272.5 351.5,272.333 477.5,272.5 Z"/></g>
<g><path style="opacity:1" fill="#1565bf" d="M 477.5,272.5 C 483.176,272.334 488.843,272.501 494.5,273C 467.668,346.662 441.335,420.496 415.5,494.5C 409.833,494.5 404.167,494.5 398.5,494.5C 424.837,420.494 451.171,346.494 477.5,272.5 Z"/></g>
<g><path style="opacity:1" fill="#000103" d="M 188.5,289.5 C 217.642,289.141 231.142,303.475 229,332.5C 225.009,344.491 217.009,352.491 205,356.5C 204.333,363.833 204.333,371.167 205,378.5C 206.167,380.333 207.667,381.833 209.5,383C 251.5,383.667 293.5,383.667 335.5,383C 337.57,382.052 339.07,380.552 340,378.5C 340.831,371.144 340.665,363.811 339.5,356.5C 320.115,348.066 312.615,333.399 317,312.5C 329.55,288.87 347.383,283.704 370.5,297C 386.059,312.153 387.559,328.653 375,346.5C 370.383,351.228 364.883,354.561 358.5,356.5C 357.668,364.479 357.168,372.479 357,380.5C 354.5,391 348,397.5 337.5,400C 293.833,400.667 250.167,400.667 206.5,400C 196.566,397.067 190.4,390.567 188,380.5C 187.832,372.479 187.332,364.479 186.5,356.5C 173.013,351.882 164.847,342.548 162,328.5C 161.397,309.027 170.23,296.027 188.5,289.5 Z"/></g>
<g><path style="opacity:1" fill="#1462b9" d="M 191.5,306.5 C 206.879,306.042 213.712,313.375 212,328.5C 211.186,332.48 209.019,335.48 205.5,337.5C 204.682,334.893 204.182,332.226 204,329.5C 201.103,324.845 196.937,323.345 191.5,325C 190.333,326.167 189.167,327.333 188,328.5C 187.667,331.833 187.333,335.167 187,338.5C 175.901,328.867 175.734,319.034 186.5,309C 188.315,308.243 189.981,307.41 191.5,306.5 Z"/></g>
<g><path style="opacity:1" fill="#1462b9" d="M 345.5,306.5 C 361.541,307.022 368.041,315.022 365,330.5C 363.383,333.784 361.05,336.451 358,338.5C 359.15,326.968 354.317,322.801 343.5,326C 341.147,329.442 339.98,333.275 340,337.5C 332.136,331.275 330.469,323.608 335,314.5C 337.855,310.789 341.355,308.123 345.5,306.5 Z"/></g>
</svg>
