<?xml version="1.0" encoding="UTF-8"?>
<!DOCTYPE svg PUBLIC "-//W3C//DTD SVG 1.1//EN" "http://www.w3.org/Graphics/SVG/1.1/DTD/svg11.dtd">
<svg xmlns="http://www.w3.org/2000/svg" version="1.1" width="512px" height="512px" style="shape-rendering:geometricPrecision; text-rendering:geometricPrecision; image-rendering:optimizeQuality; fill-rule:evenodd; clip-rule:evenodd" xmlns:xlink="http://www.w3.org/1999/xlink">
<g><path style="opacity:0.993" fill="#083863" d="M 511.5,73.5 C 511.5,194.833 511.5,316.167 511.5,437.5C 506.681,455.151 495.348,466.318 477.5,471C 329.5,471.667 181.5,471.667 33.5,471C 15.6521,466.318 4.31874,455.151 -0.5,437.5C -0.5,316.167 -0.5,194.833 -0.5,73.5C 4.31874,55.8487 15.6521,44.682 33.5,40C 181.5,39.3333 329.5,39.3333 477.5,40C 495.348,44.682 506.681,55.8487 511.5,73.5 Z"/></g>
<g><path style="opacity:1" fill="#00aae8" d="M 493.5,78.5 C 493.5,100.5 493.5,122.5 493.5,144.5C 334.833,144.5 176.167,144.5 17.5,144.5C 17.5,122.5 17.5,100.5 17.5,78.5C 20.241,67.2581 27.241,60.0914 38.5,57C 182.833,56.3333 327.167,56.3333 471.5,57C 483.314,59.6482 490.648,66.8148 493.5,78.5 Z"/></g>
<g><path style="opacity:1" fill="#083964" d="M 51.5,69.5 C 70.6258,67.467 83.4591,75.467 90,93.5C 92.7791,113.124 84.9457,126.291 66.5,133C 38.5617,134.056 26.0617,120.556 29,92.5C 32.684,80.9837 40.184,73.3171 51.5,69.5 Z"/></g>
<g><path style="opacity:1" fill="#083964" d="M 125.5,69.5 C 145.174,67.4146 158.008,75.7479 164,94.5C 166.477,113.724 158.644,126.558 140.5,133C 112.55,134.045 100.05,120.545 103,92.5C 106.684,80.9837 114.184,73.3171 125.5,69.5 Z"/></g>
<g><path style="opacity:1" fill="#083964" d="M 199.5,69.5 C 219.162,67.4096 231.995,75.7429 238,94.5C 240.444,113.702 232.611,126.535 214.5,133C 186.55,134.045 174.05,120.545 177,92.5C 180.684,80.9837 188.184,73.3171 199.5,69.5 Z"/></g>
<g><path style="opacity:1" fill="#046698" d="M 17.5,78.5 C 17.5,100.5 17.5,122.5 17.5,144.5C 176.167,144.5 334.833,144.5 493.5,144.5C 493.5,122.5 493.5,100.5 493.5,78.5C 494.497,100.66 494.831,122.994 494.5,145.5C 335.167,145.5 175.833,145.5 16.5,145.5C 16.1692,122.994 16.5026,100.66 17.5,78.5 Z"/></g>
<g><path style="opacity:1" fill="#00ebce" d="M 202.5,86.5 C 215.463,85.6304 221.63,91.6304 221,104.5C 217.786,115.018 210.953,118.518 200.5,115C 193.971,110.08 191.804,103.58 194,95.5C 196.362,91.9734 199.196,88.9734 202.5,86.5 Z"/></g>
<g><path style="opacity:1" fill="#00ebcf" d="M 128.5,86.5 C 141.983,85.8153 148.15,92.1486 147,105.5C 143.208,115.209 136.374,118.376 126.5,115C 116.559,104.604 117.225,95.1041 128.5,86.5 Z"/></g>
<g><path style="opacity:1" fill="#00ebcf" d="M 54.5,86.5 C 71.1514,86.7982 76.6514,94.7982 71,110.5C 63.2265,118.356 55.5598,118.356 48,110.5C 43.0838,100.483 45.2505,92.4832 54.5,86.5 Z"/></g>
<g><path style="opacity:1" fill="#00eed0" d="M 16.5,162.5 C 175.833,162.5 335.167,162.5 494.5,162.5C 494.667,251.167 494.5,339.834 494,428.5C 492.534,442.301 485.034,450.801 471.5,454C 327.167,454.667 182.833,454.667 38.5,454C 25.5209,450.357 18.3543,441.857 17,428.5C 16.5,339.834 16.3333,251.167 16.5,162.5 Z"/></g>
<g><path style="opacity:1" fill="#093963" d="M 265.5,350.5 C 264.791,349.596 263.791,349.263 262.5,349.5C 262.5,360.833 262.5,372.167 262.5,383.5C 260.826,392.008 255.826,397.508 247.5,400C 233.5,400.333 219.5,400.667 205.5,401C 197.167,410.667 188.833,420.333 180.5,430C 176.833,432 173.167,432 169.5,430C 168.107,428.829 167.273,427.329 167,425.5C 165.356,417.446 163.523,409.446 161.5,401.5C 155.528,400.67 149.528,400.17 143.5,400C 136.242,397.076 131.408,391.909 129,384.5C 128.333,361.167 128.333,337.833 129,314.5C 131.72,306.28 137.22,300.947 145.5,298.5C 155.167,298.5 164.833,298.5 174.5,298.5C 174.5,273.833 174.5,249.167 174.5,224.5C 176.478,206.355 186.478,195.855 204.5,193C 253.5,192.333 302.5,192.333 351.5,193C 369.468,195.968 379.635,206.468 382,224.5C 382.667,256.5 382.667,288.5 382,320.5C 378.768,334.731 370.268,344.231 356.5,349C 347.814,349.168 339.148,349.668 330.5,350.5C 327.015,364.759 323.848,379.092 321,393.5C 318.646,399.095 314.479,400.928 308.5,399C 293.587,383.259 279.254,367.093 265.5,350.5 Z"/></g>
<g><path style="opacity:1" fill="#00aae8" d="M 204.5,209.5 C 253.501,209.333 302.501,209.5 351.5,210C 358.552,211.93 363.052,216.43 365,223.5C 365.667,255.167 365.667,286.833 365,318.5C 363.237,325.262 359.07,329.762 352.5,332C 341.07,332.043 329.737,332.71 318.5,334C 316.959,335.579 315.792,337.413 315,339.5C 312.689,350.222 310.189,360.888 307.5,371.5C 295.726,358.802 284.059,345.969 272.5,333C 249.5,332.667 226.5,332.333 203.5,332C 197.279,330.077 193.446,325.91 192,319.5C 191.333,287.167 191.333,254.833 192,222.5C 194.353,216.315 198.52,211.982 204.5,209.5 Z"/></g>
<g><path style="opacity:1" fill="#06a3a3" d="M 174.5,224.5 C 174.5,249.167 174.5,273.833 174.5,298.5C 164.833,298.5 155.167,298.5 145.5,298.5C 154.652,297.506 163.985,297.173 173.5,297.5C 173.169,272.994 173.502,248.661 174.5,224.5 Z"/></g>
<g><path style="opacity:1" fill="#083863" d="M 211.5,242.5 C 238.502,242.333 265.502,242.5 292.5,243C 299.156,248.382 299.156,253.715 292.5,259C 265.5,259.667 238.5,259.667 211.5,259C 204.87,253.55 204.87,248.05 211.5,242.5 Z"/></g>
<g><path style="opacity:1" fill="#083863" d="M 211.5,281.5 C 254.501,281.333 297.501,281.5 340.5,282C 348.1,286.871 348.434,292.204 341.5,298C 298.167,298.667 254.833,298.667 211.5,298C 204.87,292.55 204.87,287.05 211.5,281.5 Z"/></g>
<g><path style="opacity:1" fill="#fbd941" d="M 147.5,315.5 C 156.5,315.5 165.5,315.5 174.5,315.5C 174.997,331.002 182.33,341.835 196.5,348C 212.763,349.455 229.096,349.955 245.5,349.5C 245.821,360.748 245.487,371.915 244.5,383C 229.833,383.333 215.167,383.667 200.5,384C 199.5,384.333 198.5,384.667 197.5,385C 191.667,391.5 185.833,398 180,404.5C 178.852,398.076 177.019,391.909 174.5,386C 173.328,385.581 172.328,384.915 171.5,384C 163.5,383.667 155.5,383.333 147.5,383C 146.874,382.25 146.374,381.416 146,380.5C 145.333,359.833 145.333,339.167 146,318.5C 146.513,317.473 147.013,316.473 147.5,315.5 Z"/></g>
<g><path style="opacity:1" fill="#058591" d="M 265.5,350.5 C 263.841,361.295 262.841,372.295 262.5,383.5C 262.5,372.167 262.5,360.833 262.5,349.5C 263.791,349.263 264.791,349.596 265.5,350.5 Z"/></g>
</svg>
