<?xml version="1.0" encoding="UTF-8"?>
<!DOCTYPE svg PUBLIC "-//W3C//DTD SVG 1.1//EN" "http://www.w3.org/Graphics/SVG/1.1/DTD/svg11.dtd">
<svg xmlns="http://www.w3.org/2000/svg" version="1.1" width="512px" height="512px" style="shape-rendering:geometricPrecision; text-rendering:geometricPrecision; image-rendering:optimizeQuality; fill-rule:evenodd; clip-rule:evenodd" xmlns:xlink="http://www.w3.org/1999/xlink">
<g><path style="opacity:0.975" fill="#000000" d="M 272.5,-0.5 C 322.5,-0.5 372.5,-0.5 422.5,-0.5C 424.705,1.3634 426.039,3.69673 426.5,6.5C 426.076,10.146 424.076,12.646 420.5,14C 372.5,14.3333 324.5,14.6667 276.5,15C 274.667,16.1667 273.167,17.6667 272,19.5C 271.333,50.8333 271.333,82.1667 272,113.5C 272.774,115.939 274.274,117.773 276.5,119C 341.499,119.5 406.499,119.667 471.5,119.5C 477.842,119.666 484.175,119.5 490.5,119C 493.333,118.167 495.167,116.333 496,113.5C 496.667,82.1667 496.667,50.8333 496,19.5C 494.773,17.2739 492.939,15.7739 490.5,15C 484.175,14.5005 477.842,14.3338 471.5,14.5C 464.825,14.6663 458.158,14.4996 451.5,14C 449.177,11.8301 447.51,9.33012 446.5,6.5C 447.089,3.72376 448.422,1.39043 450.5,-0.5C 465.5,-0.5 480.5,-0.5 495.5,-0.5C 498.436,1.30787 501.436,3.1412 504.5,5C 507.229,8.30753 509.562,11.8075 511.5,15.5C 511.5,49.8333 511.5,84.1667 511.5,118.5C 509.562,122.192 507.229,125.692 504.5,129C 501.661,130.92 498.661,132.587 495.5,134C 421.167,134.667 346.833,134.667 272.5,134C 264.667,131.5 259.5,126.333 257,118.5C 256.5,103.837 256.333,89.1705 256.5,74.5C 246.833,74.5 237.167,74.5 227.5,74.5C 227.5,132.167 227.5,189.833 227.5,247.5C 237.167,247.5 246.833,247.5 256.5,247.5C 256.333,233.163 256.5,218.829 257,204.5C 259.904,195.93 265.737,190.43 274.5,188C 347.5,187.333 420.5,187.333 493.5,188C 502.281,190.619 508.281,196.119 511.5,204.5C 511.5,238.5 511.5,272.5 511.5,306.5C 508.281,314.881 502.281,320.381 493.5,323C 420.5,323.667 347.5,323.667 274.5,323C 265.737,320.57 259.904,315.07 257,306.5C 256.5,292.171 256.333,277.837 256.5,263.5C 246.833,263.5 237.167,263.5 227.5,263.5C 227.5,321.167 227.5,378.833 227.5,436.5C 237.167,436.5 246.833,436.5 256.5,436.5C 256.333,421.83 256.5,407.163 257,392.5C 259.5,384.667 264.667,379.5 272.5,377C 346.833,376.333 421.167,376.333 495.5,377C 498.661,378.413 501.661,380.08 504.5,382C 507.229,385.308 509.562,388.808 511.5,392.5C 511.5,426.833 511.5,461.167 511.5,495.5C 509.692,498.436 507.859,501.436 506,504.5C 502.692,507.229 499.192,509.562 495.5,511.5C 445.5,511.5 395.5,511.5 345.5,511.5C 343.396,509.628 342.063,507.295 341.5,504.5C 342.053,501.413 343.72,498.913 346.5,497C 388.165,496.5 429.832,496.333 471.5,496.5C 477.842,496.666 484.175,496.5 490.5,496C 493.333,495.167 495.167,493.333 496,490.5C 496.667,459.167 496.667,427.833 496,396.5C 494.773,394.274 492.939,392.774 490.5,392C 484.175,391.5 477.842,391.334 471.5,391.5C 406.499,391.333 341.499,391.5 276.5,392C 274.667,393.167 273.167,394.667 272,396.5C 271.333,427.833 271.333,459.167 272,490.5C 272.774,492.939 274.274,494.773 276.5,496C 289.833,496.333 303.167,496.667 316.5,497C 320.023,498.182 322.023,500.682 322.5,504.5C 322.429,507.652 321.095,509.986 318.5,511.5C 303.167,511.5 287.833,511.5 272.5,511.5C 268.808,509.562 265.308,507.229 262,504.5C 260.08,501.661 258.413,498.661 257,495.5C 256.5,481.171 256.333,466.837 256.5,452.5C 243.163,452.667 229.829,452.5 216.5,452C 214.333,451.167 212.833,449.667 212,447.5C 211.5,386.168 211.333,324.834 211.5,263.5C 200.162,263.667 188.828,263.5 177.5,263C 172.465,259.987 171.298,255.82 174,250.5C 174.903,249.299 176.069,248.465 177.5,248C 188.828,247.5 200.162,247.333 211.5,247.5C 211.333,186.166 211.5,124.832 212,63.5C 212.833,61.3333 214.333,59.8333 216.5,59C 229.829,58.5001 243.163,58.3334 256.5,58.5C 256.333,44.1628 256.5,29.8295 257,15.5C 258.413,12.3388 260.08,9.33883 262,6.5C 265.308,3.77106 268.808,1.43772 272.5,-0.5 Z"/></g>
<g><path style="opacity:0.999" fill="#ebf3fe" d="M 426.5,6.5 C 433.167,6.5 439.833,6.5 446.5,6.5C 447.51,9.33012 449.177,11.8301 451.5,14C 458.158,14.4996 464.825,14.6663 471.5,14.5C 474.737,19.5448 475.071,24.5448 472.5,29.5C 453.164,29.3334 433.83,29.5 414.5,30C 410.667,31.1667 408.167,33.6667 407,37.5C 406.333,56.8333 406.333,76.1667 407,95.5C 407.73,99.8963 410.23,102.73 414.5,104C 433.83,104.5 453.164,104.667 472.5,104.5C 475.071,109.455 474.737,114.455 471.5,119.5C 406.499,119.667 341.499,119.5 276.5,119C 274.274,117.773 272.774,115.939 272,113.5C 271.333,82.1667 271.333,50.8333 272,19.5C 273.167,17.6667 274.667,16.1667 276.5,15C 324.5,14.6667 372.5,14.3333 420.5,14C 424.076,12.646 426.076,10.146 426.5,6.5 Z"/></g>
<g><path style="opacity:1" fill="#dce9fa" d="M 471.5,14.5 C 477.842,14.3338 484.175,14.5005 490.5,15C 492.939,15.7739 494.773,17.2739 496,19.5C 496.667,50.8333 496.667,82.1667 496,113.5C 495.167,116.333 493.333,118.167 490.5,119C 484.175,119.5 477.842,119.666 471.5,119.5C 474.737,114.455 475.071,109.455 472.5,104.5C 477.151,103.346 479.985,100.346 481,95.5C 481.667,76.1667 481.667,56.8333 481,37.5C 479.555,33.218 476.722,30.5513 472.5,29.5C 475.071,24.5448 474.737,19.5448 471.5,14.5 Z"/></g>
<g><path style="opacity:1" fill="#020202" d="M 308.5,29.5 C 325.503,29.3334 342.503,29.5001 359.5,30C 364.626,32.553 365.793,36.3864 363,41.5C 362.097,42.7014 360.931,43.5348 359.5,44C 342.5,44.6667 325.5,44.6667 308.5,44C 301.899,39.1709 301.899,34.3376 308.5,29.5 Z"/></g>
<g><path style="opacity:1" fill="#010101" d="M 472.5,29.5 C 476.722,30.5513 479.555,33.218 481,37.5C 481.667,56.8333 481.667,76.1667 481,95.5C 479.985,100.346 477.151,103.346 472.5,104.5C 453.164,104.667 433.83,104.5 414.5,104C 410.23,102.73 407.73,99.8963 407,95.5C 406.333,76.1667 406.333,56.8333 407,37.5C 408.167,33.6667 410.667,31.1667 414.5,30C 433.83,29.5 453.164,29.3334 472.5,29.5 Z"/></g>
<g><path style="opacity:1" fill="#75cef9" d="M 421.5,44.5 C 436.5,44.5 451.5,44.5 466.5,44.5C 466.5,59.5 466.5,74.5 466.5,89.5C 451.5,89.5 436.5,89.5 421.5,89.5C 421.5,74.5 421.5,59.5 421.5,44.5 Z"/></g>
<g><path style="opacity:1" fill="#010101" d="M 308.5,59.5 C 330.836,59.3334 353.169,59.5 375.5,60C 380.415,62.4423 381.749,66.2756 379.5,71.5C 378.335,72.5836 377.002,73.4169 375.5,74C 353.167,74.6667 330.833,74.6667 308.5,74C 301.899,69.1709 301.899,64.3376 308.5,59.5 Z"/></g>
<g><path style="opacity:1" fill="#010101" d="M 308.5,89.5 C 330.836,89.3334 353.169,89.5 375.5,90C 380.415,92.4423 381.749,96.2756 379.5,101.5C 378.335,102.584 377.002,103.417 375.5,104C 353.167,104.667 330.833,104.667 308.5,104C 301.899,99.1709 301.899,94.3376 308.5,89.5 Z"/></g>
<g><path style="opacity:0.972" fill="#020101" d="M -0.5,321.5 C -0.5,306.833 -0.5,292.167 -0.5,277.5C 5.50883,256.662 19.1755,243.828 40.5,239C 38.0122,235.204 36.5122,231.038 36,226.5C 35.3333,214.5 35.3333,202.5 36,190.5C 42.1683,165.151 58.335,153.651 84.5,156C 103.405,159.97 114.572,171.47 118,190.5C 118.667,202.5 118.667,214.5 118,226.5C 117.488,231.038 115.988,235.204 113.5,239C 144.41,247.284 158.076,267.451 154.5,299.5C 154.333,306.833 154.167,314.167 154,321.5C 151.163,331.346 144.663,337.18 134.5,339C 96.1667,339.667 57.8333,339.667 19.5,339C 9.25397,337.073 2.5873,331.24 -0.5,321.5 Z"/></g>
<g><path style="opacity:1" fill="#a7573c" d="M 80.5,192.5 C 79.7019,187.94 78.2019,183.606 76,179.5C 74.2636,176.261 71.7636,173.927 68.5,172.5C 86.0488,168.283 97.3822,174.949 102.5,192.5C 95.1667,192.5 87.8333,192.5 80.5,192.5 Z"/></g>
<g><path style="opacity:1" fill="#bc674e" d="M 68.5,172.5 C 71.7636,173.927 74.2636,176.261 76,179.5C 78.2019,183.606 79.7019,187.94 80.5,192.5C 70.8333,192.5 61.1667,192.5 51.5,192.5C 53.5439,182.787 59.2106,176.12 68.5,172.5 Z"/></g>
<g><path style="opacity:1" fill="#e8f0fa" d="M 277.5,203.5 C 342.503,203.167 407.503,203.5 472.5,204.5C 473.439,208.765 473.772,213.098 473.5,217.5C 453.993,217.17 434.659,217.503 415.5,218.5C 411.638,219.524 408.805,221.857 407,225.5C 406.333,244.833 406.333,264.167 407,283.5C 407.981,288.313 410.814,291.313 415.5,292.5C 434.659,293.497 453.993,293.83 473.5,293.5C 473.772,297.902 473.439,302.235 472.5,306.5C 407.503,307.5 342.503,307.833 277.5,307.5C 274.482,306.647 272.649,304.647 272,301.5C 271.333,270.5 271.333,239.5 272,208.5C 273.076,205.921 274.909,204.254 277.5,203.5 Z"/></g>
<g><path style="opacity:1" fill="#c5d0df" d="M 277.5,203.5 C 347.999,202.335 418.665,202.168 489.5,203C 492.583,203.786 494.749,205.619 496,208.5C 496.667,239.5 496.667,270.5 496,301.5C 495.193,304.973 493.027,307.14 489.5,308C 418.665,308.832 347.999,308.665 277.5,307.5C 342.503,307.833 407.503,307.5 472.5,306.5C 473.439,302.235 473.772,297.902 473.5,293.5C 453.993,293.83 434.659,293.497 415.5,292.5C 435.925,292.976 456.259,292.476 476.5,291C 478.894,289.048 480.394,286.548 481,283.5C 481.667,264.167 481.667,244.833 481,225.5C 479.878,223.376 478.378,221.543 476.5,220C 456.259,218.524 435.925,218.024 415.5,218.5C 434.659,217.503 453.993,217.17 473.5,217.5C 473.772,213.098 473.439,208.765 472.5,204.5C 407.503,203.5 342.503,203.167 277.5,203.5 Z"/></g>
<g><path style="opacity:1" fill="#fedccd" d="M 69.5,244.5 C 58.7491,241.08 52.7491,233.747 51.5,222.5C 51.5,217.833 51.5,213.167 51.5,208.5C 61.1667,208.5 70.8333,208.5 80.5,208.5C 81.7923,219.116 79.9589,229.116 75,238.5C 73.383,240.763 71.5497,242.763 69.5,244.5 Z"/></g>
<g><path style="opacity:1" fill="#f6c5b8" d="M 69.5,244.5 C 71.5497,242.763 73.383,240.763 75,238.5C 79.9589,229.116 81.7923,219.116 80.5,208.5C 70.8333,208.5 61.1667,208.5 51.5,208.5C 51.5,213.167 51.5,217.833 51.5,222.5C 50.5128,217.695 50.1795,212.695 50.5,207.5C 68.1667,207.5 85.8333,207.5 103.5,207.5C 104.798,217.495 102.964,226.829 98,235.5C 90.2102,244.316 80.7102,247.316 69.5,244.5 Z"/></g>
<g><path style="opacity:1" fill="#010101" d="M 307.5,218.5 C 325.17,218.333 342.836,218.5 360.5,219C 365.808,223.237 365.808,227.571 360.5,232C 342.833,232.667 325.167,232.667 307.5,232C 302.209,227.423 302.209,222.923 307.5,218.5 Z"/></g>
<g><path style="opacity:1" fill="#000000" d="M 415.5,218.5 C 435.925,218.024 456.259,218.524 476.5,220C 478.378,221.543 479.878,223.376 481,225.5C 481.667,244.833 481.667,264.167 481,283.5C 480.394,286.548 478.894,289.048 476.5,291C 456.259,292.476 435.925,292.976 415.5,292.5C 410.814,291.313 407.981,288.313 407,283.5C 406.333,264.167 406.333,244.833 407,225.5C 408.805,221.857 411.638,219.524 415.5,218.5 Z"/></g>
<g><path style="opacity:1" fill="#f9da7a" d="M 421.5,232.5 C 436.5,232.5 451.5,232.5 466.5,232.5C 466.5,247.833 466.5,263.167 466.5,278.5C 451.5,278.5 436.5,278.5 421.5,278.5C 421.5,263.167 421.5,247.833 421.5,232.5 Z"/></g>
<g><path style="opacity:1" fill="#010101" d="M 307.5,248.5 C 330.836,248.333 354.169,248.5 377.5,249C 381.5,253.333 381.5,257.667 377.5,262C 354.167,262.667 330.833,262.667 307.5,262C 302.209,257.423 302.209,252.923 307.5,248.5 Z"/></g>
<g><path style="opacity:1" fill="#da4dae" d="M 111.5,255.5 C 108.482,255.335 105.482,255.502 102.5,256C 115.053,267.828 119.719,282.328 116.5,299.5C 113.531,293.706 108.864,289.873 102.5,288C 84.8333,287.333 67.1667,287.333 49.5,288C 43.6079,290.892 39.4413,295.392 37,301.5C 36.5003,308.826 36.3337,316.159 36.5,323.5C 30.8236,323.666 25.1569,323.499 19.5,323C 17.6217,321.457 16.1217,319.624 15,317.5C 14.3333,304.833 14.3333,292.167 15,279.5C 24.8003,256.238 41.3003,249.405 64.5,259C 76.0522,261.943 87.0522,260.609 97.5,255C 102.352,254.185 107.019,254.352 111.5,255.5 Z"/></g>
<g><path style="opacity:1" fill="#d82ea1" d="M 111.5,255.5 C 125.424,257.917 134.591,265.917 139,279.5C 139.667,292.167 139.667,304.833 139,317.5C 137.878,319.624 136.378,321.457 134.5,323C 128.843,323.499 123.176,323.666 117.5,323.5C 117.77,315.445 117.437,307.445 116.5,299.5C 119.719,282.328 115.053,267.828 102.5,256C 105.482,255.502 108.482,255.335 111.5,255.5 Z"/></g>
<g><path style="opacity:1" fill="#010101" d="M 307.5,278.5 C 330.836,278.333 354.169,278.5 377.5,279C 381.5,283.333 381.5,287.667 377.5,292C 354.167,292.667 330.833,292.667 307.5,292C 302.209,287.423 302.209,282.923 307.5,278.5 Z"/></g>
<g><path style="opacity:1" fill="#fedf7c" d="M 53.5,302.5 C 69.1702,302.333 84.8369,302.5 100.5,303C 101,303.5 101.5,304 102,304.5C 102.5,310.825 102.666,317.158 102.5,323.5C 85.5,323.5 68.5,323.5 51.5,323.5C 51.3338,317.158 51.5005,310.825 52,304.5C 52.7172,303.956 53.2172,303.289 53.5,302.5 Z"/></g>
<g><path style="opacity:0.999" fill="#ebf3fe" d="M 471.5,391.5 C 474.737,396.545 475.071,401.545 472.5,406.5C 453.164,406.333 433.83,406.5 414.5,407C 410.667,408.167 408.167,410.667 407,414.5C 406.333,433.833 406.333,453.167 407,472.5C 407.73,476.896 410.23,479.73 414.5,481C 433.83,481.5 453.164,481.667 472.5,481.5C 475.071,486.455 474.737,491.455 471.5,496.5C 429.832,496.333 388.165,496.5 346.5,497C 343.72,498.913 342.053,501.413 341.5,504.5C 335.167,504.5 328.833,504.5 322.5,504.5C 322.023,500.682 320.023,498.182 316.5,497C 303.167,496.667 289.833,496.333 276.5,496C 274.274,494.773 272.774,492.939 272,490.5C 271.333,459.167 271.333,427.833 272,396.5C 273.167,394.667 274.667,393.167 276.5,392C 341.499,391.5 406.499,391.333 471.5,391.5 Z"/></g>
<g><path style="opacity:1" fill="#dce9fa" d="M 471.5,391.5 C 477.842,391.334 484.175,391.5 490.5,392C 492.939,392.774 494.773,394.274 496,396.5C 496.667,427.833 496.667,459.167 496,490.5C 495.167,493.333 493.333,495.167 490.5,496C 484.175,496.5 477.842,496.666 471.5,496.5C 474.737,491.455 475.071,486.455 472.5,481.5C 477.151,480.346 479.985,477.346 481,472.5C 481.667,453.167 481.667,433.833 481,414.5C 479.555,410.218 476.722,407.551 472.5,406.5C 475.071,401.545 474.737,396.545 471.5,391.5 Z"/></g>
<g><path style="opacity:1" fill="#020202" d="M 308.5,406.5 C 325.503,406.333 342.503,406.5 359.5,407C 364.626,409.553 365.793,413.386 363,418.5C 362.097,419.701 360.931,420.535 359.5,421C 342.5,421.667 325.5,421.667 308.5,421C 301.899,416.171 301.899,411.338 308.5,406.5 Z"/></g>
<g><path style="opacity:1" fill="#010101" d="M 472.5,406.5 C 476.722,407.551 479.555,410.218 481,414.5C 481.667,433.833 481.667,453.167 481,472.5C 479.985,477.346 477.151,480.346 472.5,481.5C 453.164,481.667 433.83,481.5 414.5,481C 410.23,479.73 407.73,476.896 407,472.5C 406.333,453.167 406.333,433.833 407,414.5C 408.167,410.667 410.667,408.167 414.5,407C 433.83,406.5 453.164,406.333 472.5,406.5 Z"/></g>
<g><path style="opacity:1" fill="#dc4fb0" d="M 421.5,421.5 C 436.5,421.5 451.5,421.5 466.5,421.5C 466.5,436.5 466.5,451.5 466.5,466.5C 451.5,466.5 436.5,466.5 421.5,466.5C 421.5,451.5 421.5,436.5 421.5,421.5 Z"/></g>
<g><path style="opacity:1" fill="#010101" d="M 308.5,436.5 C 330.836,436.333 353.169,436.5 375.5,437C 380.415,439.442 381.749,443.276 379.5,448.5C 378.335,449.584 377.002,450.417 375.5,451C 353.167,451.667 330.833,451.667 308.5,451C 301.899,446.171 301.899,441.338 308.5,436.5 Z"/></g>
<g><path style="opacity:1" fill="#010101" d="M 308.5,466.5 C 330.836,466.333 353.169,466.5 375.5,467C 380.415,469.442 381.749,473.276 379.5,478.5C 378.335,479.584 377.002,480.417 375.5,481C 353.167,481.667 330.833,481.667 308.5,481C 301.899,476.171 301.899,471.338 308.5,466.5 Z"/></g>
</svg>
