<?xml version="1.0" encoding="UTF-8"?>
<!DOCTYPE svg PUBLIC "-//W3C//DTD SVG 1.1//EN" "http://www.w3.org/Graphics/SVG/1.1/DTD/svg11.dtd">
<svg xmlns="http://www.w3.org/2000/svg" version="1.1" width="512px" height="512px" style="shape-rendering:geometricPrecision; text-rendering:geometricPrecision; image-rendering:optimizeQuality; fill-rule:evenodd; clip-rule:evenodd" xmlns:xlink="http://www.w3.org/1999/xlink">
<g><path style="opacity:0.925" fill="#000000" d="M 63.5,14.5 C 85.5025,14.3334 107.503,14.5 129.5,15C 136.922,19.5157 137.255,24.5157 130.5,30C 107.833,30.6667 85.1667,30.6667 62.5,30C 55.8613,24.4252 56.1946,19.2585 63.5,14.5 Z"/></g>
<g><path style="opacity:0.865" fill="#000000" d="M 145.5,14.5 C 156.575,14.0875 159.575,18.7541 154.5,28.5C 144.888,32.0578 140.721,28.7245 142,18.5C 142.69,16.6498 143.856,15.3164 145.5,14.5 Z"/></g>
<g><path style="opacity:0.991" fill="#010201" d="M 511.5,84.5 C 511.5,196.167 511.5,307.833 511.5,419.5C 509.251,425.577 504.917,429.411 498.5,431C 466.5,431.667 434.5,431.667 402.5,431C 399.778,429.728 398.444,427.561 398.5,424.5C 398.703,419.964 401.036,417.298 405.5,416.5C 435.169,416.667 464.835,416.5 494.5,416C 495,415.5 495.5,415 496,414.5C 496.5,403.839 496.667,393.172 496.5,382.5C 491.5,382.5 486.5,382.5 481.5,382.5C 325.833,382.5 170.167,382.5 14.5,382.5C 14.3335,393.172 14.5002,403.839 15,414.5C 15.5,415 16,415.5 16.5,416C 136.5,416.333 256.5,416.667 376.5,417C 379.28,418.913 380.947,421.413 381.5,424.5C 381.161,427.669 379.495,429.836 376.5,431C 355.169,431.5 333.836,431.667 312.5,431.5C 312.5,441.833 312.5,452.167 312.5,462.5C 326.837,462.333 341.171,462.5 355.5,463C 366.543,467.767 370.043,475.934 366,487.5C 363.545,492.149 359.712,494.983 354.5,496C 288.5,496.667 222.5,496.667 156.5,496C 144.631,491.763 140.798,483.597 145,471.5C 147.315,467.183 150.815,464.35 155.5,463C 169.829,462.5 184.163,462.333 198.5,462.5C 198.5,452.167 198.5,441.833 198.5,431.5C 136.499,431.667 74.4991,431.5 12.5,431C 6.0828,429.411 1.74947,425.577 -0.5,419.5C -0.5,351.5 -0.5,283.5 -0.5,215.5C 1.01439,212.905 3.34772,211.571 6.5,211.5C 10.0897,211.544 12.5897,213.211 14,216.5C 14.5,266.499 14.6667,316.499 14.5,366.5C 29.324,367.496 44.324,367.829 59.5,367.5C 59.5,350.833 59.5,334.167 59.5,317.5C 60.0941,310.143 63.7608,304.976 70.5,302C 119.833,301.333 169.167,301.333 218.5,302C 225.167,304.165 229.167,308.665 230.5,315.5C 230.5,332.833 230.5,350.167 230.5,367.5C 319.335,367.833 408.002,367.499 496.5,366.5C 496.5,284.833 496.5,203.167 496.5,121.5C 408.002,120.501 319.335,120.167 230.5,120.5C 230.5,126.833 230.5,133.167 230.5,139.5C 229.998,143.59 227.665,145.59 223.5,145.5C 219.403,145.531 216.903,143.531 216,139.5C 215.829,110.928 215.329,82.4281 214.5,54C 168.167,53.3333 121.833,53.3333 75.5,54C 74.8359,76.4285 74.5025,98.9285 74.5,121.5C 74.5025,144.071 74.8359,166.571 75.5,189C 110.5,189.333 145.5,189.667 180.5,190C 191.651,200.318 202.651,210.818 213.5,221.5C 214.086,221.291 214.586,220.957 215,220.5C 215.333,203.5 215.667,186.5 216,169.5C 217.512,166.143 220.012,164.143 223.5,163.5C 226.263,163.744 228.429,165.077 230,167.5C 230.667,186.5 230.667,205.5 230,224.5C 222.551,237.741 212.717,239.907 200.5,231C 191.833,222.333 183.167,213.667 174.5,205C 140.833,204.667 107.167,204.333 73.5,204C 65.0471,201.714 60.3804,196.214 59.5,187.5C 59.5,165.167 59.5,142.833 59.5,120.5C 44.324,120.171 29.324,120.504 14.5,121.5C 14.6666,144.169 14.5,166.836 14,189.5C 12.0867,192.28 9.58675,193.947 6.5,194.5C 3.70516,193.937 1.37183,192.604 -0.5,190.5C -0.5,155.167 -0.5,119.833 -0.5,84.5C 2.38949,76.4499 8.05616,71.2832 16.5,69C 30.496,68.5001 44.496,68.3334 58.5,68.5C 57.708,60.4854 58.8747,52.8187 62,45.5C 63.8734,43.2911 66.04,41.4578 68.5,40C 94.1062,38.8466 119.773,38.3466 145.5,38.5C 170.167,38.6667 194.833,38.8333 219.5,39C 223.948,41.1145 227.448,44.2811 230,48.5C 231.377,55.0764 231.877,61.7431 231.5,68.5C 319.167,68.3333 406.834,68.5 494.5,69C 502.944,71.2832 508.611,76.4499 511.5,84.5 Z"/></g>
<g><path style="opacity:1" fill="#3edf61" d="M 223.5,145.5 C 223.5,151.5 223.5,157.5 223.5,163.5C 220.012,164.143 217.512,166.143 216,169.5C 215.667,186.5 215.333,203.5 215,220.5C 214.586,220.957 214.086,221.291 213.5,221.5C 202.651,210.818 191.651,200.318 180.5,190C 145.5,189.667 110.5,189.333 75.5,189C 74.8359,166.571 74.5025,144.071 74.5,121.5C 74.5025,98.9285 74.8359,76.4285 75.5,54C 121.833,53.3333 168.167,53.3333 214.5,54C 215.329,82.4281 215.829,110.928 216,139.5C 216.903,143.531 219.403,145.531 223.5,145.5 Z"/></g>
<g><path style="opacity:1" fill="#030803" d="M 94.5,69.5 C 102.99,67.8338 106.823,71.1671 106,79.5C 102.295,83.982 97.9618,84.6487 93,81.5C 90.6603,77.0521 91.1603,73.0521 94.5,69.5 Z"/></g>
<g><path style="opacity:1" fill="#010401" d="M 121.5,68.5 C 144.502,68.3334 167.502,68.5 190.5,69C 196.616,71.3215 198.116,75.4881 195,81.5C 194.25,82.1258 193.416,82.6258 192.5,83C 168.167,83.6667 143.833,83.6667 119.5,83C 113.699,77.1042 114.366,72.2709 121.5,68.5 Z"/></g>
<g><path style="opacity:1" fill="#89bec3" d="M 19.5,83.5 C 32.8333,83.5 46.1667,83.5 59.5,83.5C 59.5,90.8333 59.5,98.1667 59.5,105.5C 44.5,105.5 29.5,105.5 14.5,105.5C 14.3339,99.8236 14.5006,94.1569 15,88.5C 16.3657,86.6383 17.8657,84.9717 19.5,83.5 Z"/></g>
<g><path style="opacity:1" fill="#89bfc4" d="M 231.5,83.5 C 318.167,83.3333 404.834,83.5 491.5,84C 493.333,85.1667 494.833,86.6667 496,88.5C 496.499,94.1569 496.666,99.8236 496.5,105.5C 408.167,105.5 319.833,105.5 231.5,105.5C 231.5,98.1667 231.5,90.8333 231.5,83.5 Z"/></g>
<g><path style="opacity:1" fill="#000301" d="M 95.5,90.5 C 127.835,90.3334 160.168,90.5 192.5,91C 196.212,93.6019 197.378,97.1019 196,101.5C 194.681,103.487 192.848,104.654 190.5,105C 158.833,105.667 127.167,105.667 95.5,105C 90.2246,100.122 90.2246,95.2888 95.5,90.5 Z"/></g>
<g><path style="opacity:1" fill="#2d3f40" d="M 231.5,83.5 C 231.5,90.8333 231.5,98.1667 231.5,105.5C 319.833,105.5 408.167,105.5 496.5,105.5C 408.002,106.499 319.335,106.833 230.5,106.5C 230.175,98.6484 230.508,90.9818 231.5,83.5 Z"/></g>
<g><path style="opacity:1" fill="#000000" d="M 95.5,112.5 C 128.168,112.333 160.835,112.5 193.5,113C 197.5,117.333 197.5,121.667 193.5,126C 160.833,126.667 128.167,126.667 95.5,126C 90.2215,121.503 90.2215,117.003 95.5,112.5 Z"/></g>
<g><path style="opacity:1" fill="#94a0a1" d="M 496.5,121.5 C 491.5,121.5 486.5,121.5 481.5,121.5C 398.167,121.5 314.833,121.5 231.5,121.5C 231.823,127.69 231.49,133.69 230.5,139.5C 230.5,133.167 230.5,126.833 230.5,120.5C 319.335,120.167 408.002,120.501 496.5,121.5 Z"/></g>
<g><path style="opacity:1" fill="#dbedee" d="M 14.5,121.5 C 29.1667,121.5 43.8333,121.5 58.5,121.5C 58.1693,143.673 58.5026,165.673 59.5,187.5C 60.3804,196.214 65.0471,201.714 73.5,204C 107.167,204.333 140.833,204.667 174.5,205C 183.167,213.667 191.833,222.333 200.5,231C 212.717,239.907 222.551,237.741 230,224.5C 230.667,205.5 230.667,186.5 230,167.5C 228.429,165.077 226.263,163.744 223.5,163.5C 223.5,157.5 223.5,151.5 223.5,145.5C 227.665,145.59 229.998,143.59 230.5,139.5C 231.49,133.69 231.823,127.69 231.5,121.5C 314.833,121.5 398.167,121.5 481.5,121.5C 481.5,203.167 481.5,284.833 481.5,366.5C 398.167,366.5 314.833,366.5 231.5,366.5C 231.83,349.325 231.497,332.325 230.5,315.5C 229.167,308.665 225.167,304.165 218.5,302C 169.167,301.333 119.833,301.333 70.5,302C 63.7608,304.976 60.0941,310.143 59.5,317.5C 58.5036,333.658 58.1702,349.991 58.5,366.5C 43.8333,366.5 29.1667,366.5 14.5,366.5C 14.6667,316.499 14.5,266.499 14,216.5C 12.5897,213.211 10.0897,211.544 6.5,211.5C 6.5,205.833 6.5,200.167 6.5,194.5C 9.58675,193.947 12.0867,192.28 14,189.5C 14.5,166.836 14.6666,144.169 14.5,121.5 Z"/></g>
<g><path style="opacity:1" fill="#a0adae" d="M 14.5,121.5 C 29.324,120.504 44.324,120.171 59.5,120.5C 59.5,142.833 59.5,165.167 59.5,187.5C 58.5026,165.673 58.1693,143.673 58.5,121.5C 43.8333,121.5 29.1667,121.5 14.5,121.5 Z"/></g>
<g><path style="opacity:1" fill="#bcdde2" d="M 481.5,121.5 C 486.5,121.5 491.5,121.5 496.5,121.5C 496.5,203.167 496.5,284.833 496.5,366.5C 491.5,366.5 486.5,366.5 481.5,366.5C 481.5,284.833 481.5,203.167 481.5,121.5 Z"/></g>
<g><path style="opacity:1" fill="#030703" d="M 95.5,134.5 C 119.836,134.333 144.169,134.5 168.5,135C 172.212,137.513 173.378,141.013 172,145.5C 170.681,147.487 168.848,148.654 166.5,149C 143.167,149.667 119.833,149.667 96.5,149C 91.3106,146.087 90.1439,141.92 93,136.5C 93.9947,135.934 94.828,135.267 95.5,134.5 Z"/></g>
<g><path style="opacity:1" fill="#040c05" d="M 186.5,134.5 C 194.543,134.04 197.71,137.706 196,145.5C 190.492,151.25 185.825,150.583 182,143.5C 181.377,139.412 182.877,136.412 186.5,134.5 Z"/></g>
<g><path style="opacity:1" fill="#090a0a" d="M 398.5,152.5 C 407.772,152.083 410.772,156.083 407.5,164.5C 402.399,169.044 398.232,168.378 395,162.5C 393.756,158.191 394.923,154.858 398.5,152.5 Z"/></g>
<g><path style="opacity:1" fill="#050506" d="M 422.5,152.5 C 431.582,152.086 440.582,152.586 449.5,154C 453.698,158.632 453.364,162.965 448.5,167C 439.167,167.667 429.833,167.667 420.5,167C 414.638,161.021 415.305,156.187 422.5,152.5 Z"/></g>
<g><path style="opacity:1" fill="#020703" d="M 95.5,156.5 C 103.161,155.663 106.661,158.996 106,166.5C 104.433,169.534 101.933,170.867 98.5,170.5C 92.6284,169.786 90.4618,166.452 92,160.5C 92.6897,158.65 93.8564,157.316 95.5,156.5 Z"/></g>
<g><path style="opacity:1" fill="#030803" d="M 120.5,155.5 C 143.836,155.333 167.169,155.5 190.5,156C 196.158,157.829 197.992,161.663 196,167.5C 195.097,168.701 193.931,169.535 192.5,170C 168.167,170.667 143.833,170.667 119.5,170C 114.068,164.761 114.401,159.928 120.5,155.5 Z"/></g>
<g><path style="opacity:1" fill="#050506" d="M 294.5,177.5 C 342.501,177.333 390.501,177.5 438.5,178C 445.237,179.736 449.737,183.903 452,190.5C 452.667,224.167 452.667,257.833 452,291.5C 450.3,298.203 446.133,302.703 439.5,305C 405.5,305.333 371.5,305.667 337.5,306C 327.804,316.03 317.804,325.697 307.5,335C 293.722,340.194 284.888,335.694 281,321.5C 280.333,278.167 280.333,234.833 281,191.5C 283.713,184.956 288.213,180.289 294.5,177.5 Z"/></g>
<g><path style="opacity:1" fill="#39bff9" d="M 297.5,192.5 C 343.876,192.172 390.209,192.505 436.5,193.5C 437.667,225.495 437.833,257.495 437,289.5C 401.905,290.33 366.738,290.83 331.5,291C 321.167,301.333 310.833,311.667 300.5,322C 299.056,322.781 297.723,322.614 296.5,321.5C 295.339,279.208 295.172,236.875 296,194.5C 296.717,193.956 297.217,193.289 297.5,192.5 Z"/></g>
<g><path style="opacity:1" fill="#070c10" d="M 318.5,210.5 C 325.693,209.539 329.193,212.539 329,219.5C 327.089,224.418 323.589,226.251 318.5,225C 311.866,220.035 311.866,215.202 318.5,210.5 Z"/></g>
<g><path style="opacity:1" fill="#030608" d="M 342.5,210.5 C 366.836,210.333 391.169,210.5 415.5,211C 419.696,213.981 420.529,217.814 418,222.5C 416.829,223.893 415.329,224.727 413.5,225C 390.167,225.667 366.833,225.667 343.5,225C 338.311,222.087 337.144,217.92 340,212.5C 340.995,211.934 341.828,211.267 342.5,210.5 Z"/></g>
<g><path style="opacity:1" fill="#020507" d="M 318.5,232.5 C 342.169,232.333 365.836,232.5 389.5,233C 396.565,236.726 397.232,241.392 391.5,247C 366.833,247.667 342.167,247.667 317.5,247C 315.133,245.079 313.8,242.579 313.5,239.5C 314.769,236.895 316.436,234.562 318.5,232.5 Z"/></g>
<g><path style="opacity:1" fill="#020608" d="M 408.5,233.5 C 418.525,232.731 421.525,236.898 417.5,246C 408.648,249.672 404.481,246.839 405,237.5C 406.032,235.973 407.199,234.64 408.5,233.5 Z"/></g>
<g><path style="opacity:1" fill="#010305" d="M 342.5,255.5 C 366.836,255.333 391.169,255.5 415.5,256C 419.212,258.602 420.378,262.102 419,266.5C 417.681,268.487 415.848,269.654 413.5,270C 389.833,270.667 366.167,270.667 342.5,270C 337.225,265.122 337.225,260.289 342.5,255.5 Z"/></g>
<g><path style="opacity:1" fill="#070c10" d="M 318.5,255.5 C 325.281,254.942 328.781,257.942 329,264.5C 326.152,270.449 321.818,271.782 316,268.5C 312.233,263.239 313.067,258.905 318.5,255.5 Z"/></g>
<g><path style="opacity:1" fill="#0c0d0d" d="M 145.5,276.5 C 154.33,275.162 157.83,278.829 156,287.5C 150.392,293.232 145.726,292.565 142,285.5C 141.333,283.833 141.333,282.167 142,280.5C 143.376,279.295 144.542,277.962 145.5,276.5 Z"/></g>
<g><path style="opacity:1" fill="#040505" d="M 63.5,276.5 C 85.1692,276.333 106.836,276.5 128.5,277C 134.059,278.458 135.892,281.958 134,287.5C 132.786,289.049 131.286,290.215 129.5,291C 107.167,291.667 84.8333,291.667 62.5,291C 56.9545,285.676 57.2878,280.843 63.5,276.5 Z"/></g>
<g><path style="opacity:1" fill="#3fe263" d="M 215.5,317.5 C 215.5,333.833 215.5,350.167 215.5,366.5C 168.5,366.5 121.5,366.5 74.5,366.5C 74.5,349.833 74.5,333.167 74.5,316.5C 121.67,316.168 168.67,316.501 215.5,317.5 Z"/></g>
<g><path style="opacity:1" fill="#040c05" d="M 95.5,338.5 C 105.032,338.179 108.032,342.346 104.5,351C 95.5001,355.337 91.3334,352.504 92,342.5C 93.1022,341.051 94.2689,339.718 95.5,338.5 Z"/></g>
<g><path style="opacity:1" fill="#030803" d="M 119.5,338.5 C 143.836,338.333 168.169,338.5 192.5,339C 195.683,340.018 197.016,342.185 196.5,345.5C 196.562,349.609 194.562,352.109 190.5,353C 167.167,353.667 143.833,353.667 120.5,353C 114.292,348.58 113.958,343.747 119.5,338.5 Z"/></g>
<g><path style="opacity:1" fill="#aebbbc" d="M 59.5,317.5 C 59.5,334.167 59.5,350.833 59.5,367.5C 44.324,367.829 29.324,367.496 14.5,366.5C 29.1667,366.5 43.8333,366.5 58.5,366.5C 58.1702,349.991 58.5036,333.658 59.5,317.5 Z"/></g>
<g><path style="opacity:1" fill="#2ea648" d="M 215.5,317.5 C 216.497,333.992 216.83,350.658 216.5,367.5C 168.997,367.832 121.664,367.499 74.5,366.5C 121.5,366.5 168.5,366.5 215.5,366.5C 215.5,350.167 215.5,333.833 215.5,317.5 Z"/></g>
<g><path style="opacity:1" fill="#a9b7b9" d="M 230.5,315.5 C 231.497,332.325 231.83,349.325 231.5,366.5C 314.833,366.5 398.167,366.5 481.5,366.5C 486.5,366.5 491.5,366.5 496.5,366.5C 408.002,367.499 319.335,367.833 230.5,367.5C 230.5,350.167 230.5,332.833 230.5,315.5 Z"/></g>
<g><path style="opacity:1" fill="#3a7ba7" d="M 481.5,382.5 C 481.5,393.5 481.5,404.5 481.5,415.5C 455.995,415.169 430.661,415.502 405.5,416.5C 401.036,417.298 398.703,419.964 398.5,424.5C 392.833,424.5 387.167,424.5 381.5,424.5C 380.947,421.413 379.28,418.913 376.5,417C 256.5,416.667 136.5,416.333 16.5,416C 16,415.5 15.5,415 15,414.5C 14.5002,403.839 14.3335,393.172 14.5,382.5C 170.167,382.5 325.833,382.5 481.5,382.5 Z"/></g>
<g><path style="opacity:1" fill="#2c6897" d="M 481.5,382.5 C 486.5,382.5 491.5,382.5 496.5,382.5C 496.667,393.172 496.5,403.839 496,414.5C 495.5,415 495,415.5 494.5,416C 464.835,416.5 435.169,416.667 405.5,416.5C 430.661,415.502 455.995,415.169 481.5,415.5C 481.5,404.5 481.5,393.5 481.5,382.5 Z"/></g>
<g><path style="opacity:1" fill="#19567e" d="M 296.5,462.5 C 296.5,454.167 296.5,445.833 296.5,437.5C 269.167,437.5 241.833,437.5 214.5,437.5C 214.5,445.833 214.5,454.167 214.5,462.5C 213.506,452.347 213.172,442.014 213.5,431.5C 241.5,431.5 269.5,431.5 297.5,431.5C 297.828,442.014 297.494,452.347 296.5,462.5 Z"/></g>
<g><path style="opacity:1" fill="#2b699a" d="M 296.5,462.5 C 269.167,462.5 241.833,462.5 214.5,462.5C 214.5,454.167 214.5,445.833 214.5,437.5C 241.833,437.5 269.167,437.5 296.5,437.5C 296.5,445.833 296.5,454.167 296.5,462.5 Z"/></g>
<g><path style="opacity:1" fill="#b0bfc0" d="M 159.5,477.5 C 223.501,477.333 287.501,477.5 351.5,478C 352.833,479 352.833,480 351.5,481C 287.5,481.667 223.5,481.667 159.5,481C 158.316,479.855 158.316,478.688 159.5,477.5 Z"/></g>
</svg>
