<?xml version="1.0" encoding="UTF-8"?>
<!DOCTYPE svg PUBLIC "-//W3C//DTD SVG 1.1//EN" "http://www.w3.org/Graphics/SVG/1.1/DTD/svg11.dtd">
<svg xmlns="http://www.w3.org/2000/svg" version="1.1" width="512px" height="512px" style="shape-rendering:geometricPrecision; text-rendering:geometricPrecision; image-rendering:optimizeQuality; fill-rule:evenodd; clip-rule:evenodd" xmlns:xlink="http://www.w3.org/1999/xlink">
<g><path style="opacity:0.995" fill="#fe702f" d="M 232.5,-0.5 C 247.833,-0.5 263.167,-0.5 278.5,-0.5C 368.144,10.3879 435.644,54.7213 481,132.5C 494.051,157.153 503.217,183.153 508.5,210.5C 507.761,210.631 507.094,210.464 506.5,210C 466.965,170.299 427.299,130.799 387.5,91.5C 305.668,90.5007 223.668,90.1674 141.5,90.5C 141.5,97.5 141.5,104.5 141.5,111.5C 127.829,111.333 114.163,111.5 100.5,112C 94.4578,115.748 92.9578,120.915 96,127.5C 97.3968,129.07 98.8968,130.404 100.5,131.5C 110.965,142.465 121.631,153.298 132.5,164C 135.482,164.498 138.482,164.665 141.5,164.5C 141.5,164.833 141.5,165.167 141.5,165.5C 127.496,165.333 113.496,165.5 99.5,166C 94.289,170.164 93.1223,175.33 96,181.5C 97.2708,182.883 98.7708,183.883 100.5,184.5C 100.369,185.239 100.536,185.906 101,186.5C 111.702,197.035 122.202,207.702 132.5,218.5C 122.161,218.334 111.828,218.5 101.5,219C 95.2048,221.425 93.0382,225.925 95,232.5C 96.331,234.996 98.1644,236.996 100.5,238.5C 111.5,249.833 122.5,261.167 133.5,272.5C 121.732,272.043 110.065,272.543 98.5,274C 94.6729,277.308 93.5063,281.474 95,286.5C 95.66,288.324 96.8267,289.657 98.5,290.5C 109.785,302.119 121.118,313.786 132.5,325.5C 122.161,325.334 111.828,325.5 101.5,326C 94.947,328.73 92.7804,333.563 95,340.5C 96.7038,342.373 98.5372,344.04 100.5,345.5C 111.5,356.833 122.5,368.167 133.5,379.5C 121.732,379.043 110.065,379.543 98.5,381C 92.7214,387.933 93.3881,394.099 100.5,399.5C 136.167,435.5 171.833,471.5 207.5,507.5C 134.253,492.148 77.4197,453.148 37,390.5C 16.1784,355.868 3.67839,318.535 -0.5,278.5C -0.5,263.167 -0.5,247.833 -0.5,232.5C 10.3875,142.857 54.7208,75.3573 132.5,30C 163.971,13.3053 197.304,3.1386 232.5,-0.5 Z"/></g>
<g><path style="opacity:1" fill="#f7dbd5" d="M 387.5,91.5 C 387.5,107.5 387.5,123.5 387.5,139.5C 387.167,139.5 386.833,139.5 386.5,139.5C 386.5,123.5 386.5,107.5 386.5,91.5C 345.833,91.5 305.167,91.5 264.5,91.5C 223.833,91.5 183.167,91.5 142.5,91.5C 142.824,98.3543 142.491,105.021 141.5,111.5C 141.5,104.5 141.5,97.5 141.5,90.5C 223.668,90.1674 305.668,90.5007 387.5,91.5 Z"/></g>
<g><path style="opacity:1" fill="#fefefe" d="M 264.5,91.5 C 264.5,110.833 264.5,130.167 264.5,149.5C 237.74,151.76 223.073,166.26 220.5,193C 222.478,217.474 235.478,231.974 259.5,236.5C 260.919,237.451 262.585,237.784 264.5,237.5C 264.5,242.833 264.5,248.167 264.5,253.5C 247.321,253.554 232.654,247.554 220.5,235.5C 211.3,244.227 205.466,254.894 203,267.5C 202.5,298.832 202.333,330.165 202.5,361.5C 223.167,361.5 243.833,361.5 264.5,361.5C 264.5,380.833 264.5,400.167 264.5,419.5C 223.833,419.5 183.167,419.5 142.5,419.5C 142.824,412.646 142.491,405.979 141.5,399.5C 141.5,392.833 141.5,386.167 141.5,379.5C 141.5,368.167 141.5,356.833 141.5,345.5C 141.5,338.833 141.5,332.167 141.5,325.5C 141.5,314.5 141.5,303.5 141.5,292.5C 141.5,285.833 141.5,279.167 141.5,272.5C 141.5,261.167 141.5,249.833 141.5,238.5C 141.5,231.833 141.5,225.167 141.5,218.5C 141.5,207.5 141.5,196.5 141.5,185.5C 141.5,178.833 141.5,172.167 141.5,165.5C 141.5,165.167 141.5,164.833 141.5,164.5C 141.5,153.5 141.5,142.5 141.5,131.5C 141.5,124.833 141.5,118.167 141.5,111.5C 142.491,105.021 142.824,98.3543 142.5,91.5C 183.167,91.5 223.833,91.5 264.5,91.5 Z"/></g>
<g><path style="opacity:1" fill="#e2e9ed" d="M 264.5,91.5 C 305.167,91.5 345.833,91.5 386.5,91.5C 386.5,107.5 386.5,123.5 386.5,139.5C 386.5,157.5 386.5,175.5 386.5,193.5C 386.5,268.833 386.5,344.167 386.5,419.5C 345.833,419.5 305.167,419.5 264.5,419.5C 264.5,400.167 264.5,380.833 264.5,361.5C 285.167,361.5 305.833,361.5 326.5,361.5C 326.667,330.832 326.5,300.165 326,269.5C 323.571,256.307 317.738,244.974 308.5,235.5C 296.126,247.018 281.46,253.018 264.5,253.5C 264.5,248.167 264.5,242.833 264.5,237.5C 262.585,237.784 260.919,237.451 259.5,236.5C 261.167,236.5 262.833,236.5 264.5,236.5C 291.4,234.434 305.733,219.934 307.5,193C 306.733,171.555 296.067,157.555 275.5,151C 271.886,150.064 268.22,149.564 264.5,149.5C 264.5,130.167 264.5,110.833 264.5,91.5 Z"/></g>
<g><path style="opacity:1" fill="#ff4948" d="M 387.5,91.5 C 427.299,130.799 466.965,170.299 506.5,210C 507.094,210.464 507.761,210.631 508.5,210.5C 509.188,218.013 510.188,225.346 511.5,232.5C 511.5,247.833 511.5,263.167 511.5,278.5C 500.612,368.144 456.279,435.644 378.5,481C 347.029,497.695 313.696,507.861 278.5,511.5C 263.167,511.5 247.833,511.5 232.5,511.5C 224.282,510.26 215.949,508.927 207.5,507.5C 171.833,471.5 136.167,435.5 100.5,399.5C 114.167,399.5 127.833,399.5 141.5,399.5C 141.5,406.5 141.5,413.5 141.5,420.5C 223.5,420.5 305.5,420.5 387.5,420.5C 387.5,345.167 387.5,269.833 387.5,194.5C 397.416,194.819 407.25,194.486 417,193.5C 417.5,175.503 417.667,157.503 417.5,139.5C 407.5,139.5 397.5,139.5 387.5,139.5C 387.5,123.5 387.5,107.5 387.5,91.5 Z"/></g>
<g><path style="opacity:1" fill="#5a5a59" d="M 141.5,111.5 C 141.5,118.167 141.5,124.833 141.5,131.5C 127.833,131.5 114.167,131.5 100.5,131.5C 98.8968,130.404 97.3968,129.07 96,127.5C 92.9578,120.915 94.4578,115.748 100.5,112C 114.163,111.5 127.829,111.333 141.5,111.5 Z"/></g>
<g><path style="opacity:1" fill="#ff4948" d="M 100.5,131.5 C 114.167,131.5 127.833,131.5 141.5,131.5C 141.5,142.5 141.5,153.5 141.5,164.5C 138.482,164.665 135.482,164.498 132.5,164C 121.631,153.298 110.965,142.465 100.5,131.5 Z"/></g>
<g><path style="opacity:1" fill="#fe9d0c" d="M 386.5,139.5 C 386.833,139.5 387.167,139.5 387.5,139.5C 397.5,139.5 407.5,139.5 417.5,139.5C 417.667,157.503 417.5,175.503 417,193.5C 407.25,194.486 397.416,194.819 387.5,194.5C 387.5,193.833 387.167,193.5 386.5,193.5C 386.5,175.5 386.5,157.5 386.5,139.5 Z"/></g>
<g><path style="opacity:1" fill="#09ddc0" d="M 264.5,149.5 C 264.5,178.5 264.5,207.5 264.5,236.5C 262.833,236.5 261.167,236.5 259.5,236.5C 235.478,231.974 222.478,217.474 220.5,193C 223.073,166.26 237.74,151.76 264.5,149.5 Z"/></g>
<g><path style="opacity:1" fill="#04ba9f" d="M 264.5,149.5 C 268.22,149.564 271.886,150.064 275.5,151C 296.067,157.555 306.733,171.555 307.5,193C 305.733,219.934 291.4,234.434 264.5,236.5C 264.5,207.5 264.5,178.5 264.5,149.5 Z"/></g>
<g><path style="opacity:1" fill="#5d5959" d="M 141.5,165.5 C 141.5,172.167 141.5,178.833 141.5,185.5C 127.754,185.815 114.088,185.481 100.5,184.5C 98.7708,183.883 97.2708,182.883 96,181.5C 93.1223,175.33 94.289,170.164 99.5,166C 113.496,165.5 127.496,165.333 141.5,165.5 Z"/></g>
<g><path style="opacity:1" fill="#fe4948" d="M 100.5,184.5 C 114.088,185.481 127.754,185.815 141.5,185.5C 141.5,196.5 141.5,207.5 141.5,218.5C 138.5,218.5 135.5,218.5 132.5,218.5C 122.202,207.702 111.702,197.035 101,186.5C 100.536,185.906 100.369,185.239 100.5,184.5 Z"/></g>
<g><path style="opacity:1" fill="#5c5a59" d="M 132.5,218.5 C 135.5,218.5 138.5,218.5 141.5,218.5C 141.5,225.167 141.5,231.833 141.5,238.5C 127.833,238.5 114.167,238.5 100.5,238.5C 98.1644,236.996 96.331,234.996 95,232.5C 93.0382,225.925 95.2048,221.425 101.5,219C 111.828,218.5 122.161,218.334 132.5,218.5 Z"/></g>
<g><path style="opacity:1" fill="#03ba9f" d="M 264.5,361.5 C 264.5,325.5 264.5,289.5 264.5,253.5C 281.46,253.018 296.126,247.018 308.5,235.5C 317.738,244.974 323.571,256.307 326,269.5C 326.5,300.165 326.667,330.832 326.5,361.5C 305.833,361.5 285.167,361.5 264.5,361.5 Z"/></g>
<g><path style="opacity:1" fill="#02dcc0" d="M 264.5,253.5 C 264.5,289.5 264.5,325.5 264.5,361.5C 243.833,361.5 223.167,361.5 202.5,361.5C 202.333,330.165 202.5,298.832 203,267.5C 205.466,254.894 211.3,244.227 220.5,235.5C 232.654,247.554 247.321,253.554 264.5,253.5 Z"/></g>
<g><path style="opacity:1" fill="#fd4949" d="M 100.5,238.5 C 114.167,238.5 127.833,238.5 141.5,238.5C 141.5,249.833 141.5,261.167 141.5,272.5C 138.833,272.5 136.167,272.5 133.5,272.5C 122.5,261.167 111.5,249.833 100.5,238.5 Z"/></g>
<g><path style="opacity:1" fill="#5c5959" d="M 133.5,272.5 C 136.167,272.5 138.833,272.5 141.5,272.5C 141.5,279.167 141.5,285.833 141.5,292.5C 128.163,292.667 114.829,292.5 101.5,292C 100.473,291.487 99.4734,290.987 98.5,290.5C 96.8267,289.657 95.66,288.324 95,286.5C 93.5063,281.474 94.6729,277.308 98.5,274C 110.065,272.543 121.732,272.043 133.5,272.5 Z"/></g>
<g><path style="opacity:1" fill="#fe4948" d="M 98.5,290.5 C 99.4734,290.987 100.473,291.487 101.5,292C 114.829,292.5 128.163,292.667 141.5,292.5C 141.5,303.5 141.5,314.5 141.5,325.5C 138.5,325.5 135.5,325.5 132.5,325.5C 121.118,313.786 109.785,302.119 98.5,290.5 Z"/></g>
<g><path style="opacity:1" fill="#5d5a59" d="M 132.5,325.5 C 135.5,325.5 138.5,325.5 141.5,325.5C 141.5,332.167 141.5,338.833 141.5,345.5C 127.833,345.5 114.167,345.5 100.5,345.5C 98.5372,344.04 96.7038,342.373 95,340.5C 92.7804,333.563 94.947,328.73 101.5,326C 111.828,325.5 122.161,325.334 132.5,325.5 Z"/></g>
<g><path style="opacity:1" fill="#fc4949" d="M 100.5,345.5 C 114.167,345.5 127.833,345.5 141.5,345.5C 141.5,356.833 141.5,368.167 141.5,379.5C 138.833,379.5 136.167,379.5 133.5,379.5C 122.5,368.167 111.5,356.833 100.5,345.5 Z"/></g>
<g><path style="opacity:1" fill="#5a5a59" d="M 133.5,379.5 C 136.167,379.5 138.833,379.5 141.5,379.5C 141.5,386.167 141.5,392.833 141.5,399.5C 127.833,399.5 114.167,399.5 100.5,399.5C 93.3881,394.099 92.7214,387.933 98.5,381C 110.065,379.543 121.732,379.043 133.5,379.5 Z"/></g>
<g><path style="opacity:1" fill="#f6cacb" d="M 386.5,193.5 C 387.167,193.5 387.5,193.833 387.5,194.5C 387.5,269.833 387.5,345.167 387.5,420.5C 305.5,420.5 223.5,420.5 141.5,420.5C 141.5,413.5 141.5,406.5 141.5,399.5C 142.491,405.979 142.824,412.646 142.5,419.5C 183.167,419.5 223.833,419.5 264.5,419.5C 305.167,419.5 345.833,419.5 386.5,419.5C 386.5,344.167 386.5,268.833 386.5,193.5 Z"/></g>
</svg>
