<?xml version="1.0" encoding="UTF-8"?>
<!DOCTYPE svg PUBLIC "-//W3C//DTD SVG 1.1//EN" "http://www.w3.org/Graphics/SVG/1.1/DTD/svg11.dtd">
<svg xmlns="http://www.w3.org/2000/svg" version="1.1" width="512px" height="512px" style="shape-rendering:geometricPrecision; text-rendering:geometricPrecision; image-rendering:optimizeQuality; fill-rule:evenodd; clip-rule:evenodd" xmlns:xlink="http://www.w3.org/1999/xlink">
<g><path style="opacity:0.977" fill="#020303" d="M 62.5,65.5 C 191.167,65.3333 319.834,65.5 448.5,66C 465.372,69.2062 476.205,79.0395 481,95.5C 481.667,202.167 481.667,308.833 481,415.5C 476.205,431.96 465.372,441.794 448.5,445C 319.833,445.667 191.167,445.667 62.5,445C 45.6281,441.794 34.7948,431.96 30,415.5C 29.3333,308.833 29.3333,202.167 30,95.5C 34.969,79.0271 45.8023,69.0271 62.5,65.5 Z"/></g>
<g><path style="opacity:0.999" fill="#9e867d" d="M 63.5,75.5 C 191.5,75.3333 319.5,75.5 447.5,76C 459.793,78.2931 467.626,85.4597 471,97.5C 471.5,115.164 471.667,132.83 471.5,150.5C 327.5,150.5 183.5,150.5 39.5,150.5C 39.3334,132.83 39.5001,115.164 40,97.5C 43.5926,85.4822 51.426,78.1489 63.5,75.5 Z"/></g>
<g><path style="opacity:1" fill="#040403" d="M 286.5,91.5 C 308.616,93.401 315.783,104.734 308,125.5C 296.302,137.34 284.635,137.34 273,125.5C 265.666,109.318 270.166,97.9851 286.5,91.5 Z"/></g>
<g><path style="opacity:1" fill="#050404" d="M 353.5,91.5 C 369.694,91.5311 378.194,99.5311 379,115.5C 374.3,131.934 363.8,137.434 347.5,132C 334.543,121.72 333.209,110.053 343.5,97C 346.767,94.8703 350.1,93.037 353.5,91.5 Z"/></g>
<g><path style="opacity:1" fill="#050404" d="M 421.5,91.5 C 440.278,92.4158 448.111,102.082 445,120.5C 439.269,132.114 430.102,136.281 417.5,133C 404.012,125.869 400.512,115.369 407,101.5C 409.167,99.3333 411.333,97.1667 413.5,95C 416.309,93.9066 418.976,92.7399 421.5,91.5 Z"/></g>
<g><path style="opacity:1" fill="#030303" d="M 77.5,95.5 C 120.501,95.3333 163.501,95.5 206.5,96C 220.633,100.773 224.466,109.94 218,123.5C 215.441,126.531 212.274,128.698 208.5,130C 164.833,130.667 121.167,130.667 77.5,130C 69.026,127.071 64.6927,121.071 64.5,112C 65.7068,103.968 70.0402,98.4676 77.5,95.5 Z"/></g>
<g><path style="opacity:1" fill="#cad3d7" d="M 286.5,101.5 C 298.47,101.292 303.303,106.959 301,118.5C 294.095,126.481 287.095,126.481 280,118.5C 277.671,111.152 279.838,105.485 286.5,101.5 Z"/></g>
<g><path style="opacity:1" fill="#cbd4d8" d="M 354.5,101.5 C 365.196,100.917 370.03,105.917 369,116.5C 365.909,123.128 360.743,125.628 353.5,124C 347.092,120.677 344.925,115.511 347,108.5C 348.742,105.254 351.242,102.921 354.5,101.5 Z"/></g>
<g><path style="opacity:1" fill="#cbd4d8" d="M 421.5,101.5 C 432.865,101.028 437.699,106.362 436,117.5C 432.677,123.908 427.511,126.075 420.5,124C 413.204,119.283 411.704,113.116 416,105.5C 417.812,104.023 419.645,102.69 421.5,101.5 Z"/></g>
<g><path style="opacity:1" fill="#c8d1d5" d="M 78.5,105.5 C 121.501,105.333 164.501,105.5 207.5,106C 213.205,111.814 212.538,116.814 205.5,121C 163.833,121.667 122.167,121.667 80.5,121C 73.3389,116.704 72.6722,111.537 78.5,105.5 Z"/></g>
<g><path style="opacity:1" fill="#7fdce8" d="M 39.5,160.5 C 87.1667,160.5 134.833,160.5 182.5,160.5C 182.5,251.833 182.5,343.167 182.5,434.5C 141.832,434.667 101.165,434.5 60.5,434C 49.904,430.404 43.0707,423.238 40,412.5C 39.5,328.501 39.3333,244.501 39.5,160.5 Z"/></g>
<g><path style="opacity:1" fill="#7fdce8" d="M 393.5,356.5 C 392.502,382.328 392.169,408.328 392.5,434.5C 388.5,434.5 384.5,434.5 380.5,434.5C 380.667,399.165 380.5,363.832 380,328.5C 379.5,327.333 378.667,326.5 377.5,326C 365.5,325.333 353.5,325.333 341.5,326C 339.574,326.422 338.574,327.589 338.5,329.5C 337.502,364.329 337.168,399.329 337.5,434.5C 333.5,434.5 329.5,434.5 325.5,434.5C 325.667,393.499 325.5,352.499 325,311.5C 324.5,311 324,310.5 323.5,310C 310.833,309.333 298.167,309.333 285.5,310C 285,310.5 284.5,311 284,311.5C 283.5,352.499 283.333,393.499 283.5,434.5C 279.5,434.5 275.5,434.5 271.5,434.5C 271.832,381.331 271.499,328.331 270.5,275.5C 270.489,273.983 269.823,272.816 268.5,272C 256.167,271.333 243.833,271.333 231.5,272C 230.333,272.5 229.5,273.333 229,274.5C 228.5,328.166 228.333,381.832 228.5,435.5C 216.5,435.5 204.5,435.5 192.5,435.5C 192.5,343.5 192.5,251.5 192.5,159.5C 285.5,159.5 378.5,159.5 471.5,159.5C 471.667,243.834 471.5,328.167 471,412.5C 465.63,429.787 453.797,437.453 435.5,435.5C 435.667,408.831 435.5,382.165 435,355.5C 434.167,354.667 433.333,353.833 432.5,353C 420.5,352.333 408.5,352.333 396.5,353C 394.574,353.422 393.574,354.589 393.5,356.5 Z"/></g>
<g><path style="opacity:0.998" fill="#040404" d="M 100.5,185.5 C 132.802,182.993 152.969,197.326 161,228.5C 162.325,260.175 147.492,279.341 116.5,286C 86.7092,286.539 68.2092,272.373 61,243.5C 59.3512,213.996 72.5179,194.662 100.5,185.5 Z"/></g>
<g><path style="opacity:1" fill="#020505" d="M 306.5,186.5 C 353.501,186.333 400.501,186.5 447.5,187C 451.5,190 451.5,193 447.5,196C 400.5,196.667 353.5,196.667 306.5,196C 302.581,192.84 302.581,189.673 306.5,186.5 Z"/></g>
<g><path style="opacity:0.999" fill="#e27272" d="M 101.5,195.5 C 103.167,195.5 104.833,195.5 106.5,195.5C 106.333,209.837 106.5,224.171 107,238.5C 107.5,239 108,239.5 108.5,240C 122.845,240.167 137.178,240.667 151.5,241.5C 146.088,263.074 132.255,274.74 110,276.5C 89.9925,274.335 76.9925,263.668 71,244.5C 68.3191,220.041 78.4858,203.708 101.5,195.5 Z"/></g>
<g><path style="opacity:0.999" fill="#fbc97f" d="M 115.5,195.5 C 135.13,198.962 147.13,210.462 151.5,230C 139.505,230.5 127.505,230.667 115.5,230.5C 115.5,218.833 115.5,207.167 115.5,195.5 Z"/></g>
<g><path style="opacity:1" fill="#000000" d="M 306.5,223.5 C 353.835,223.333 401.168,223.5 448.5,224C 451.167,226.667 451.167,229.333 448.5,232C 400.833,232.667 353.167,232.667 305.5,232C 302.751,228.762 303.085,225.929 306.5,223.5 Z"/></g>
<g><path style="opacity:1" fill="#020505" d="M 306.5,259.5 C 353.501,259.333 400.501,259.5 447.5,260C 451.5,263 451.5,266 447.5,269C 400.5,269.667 353.5,269.667 306.5,269C 302.581,265.84 302.581,262.673 306.5,259.5 Z"/></g>
<g><path style="opacity:0.769" fill="#67b3bd" d="M 270.5,275.5 C 271.499,328.331 271.832,381.331 271.5,434.5C 275.5,434.5 279.5,434.5 283.5,434.5C 279.366,435.485 275.032,435.818 270.5,435.5C 270.5,382.167 270.5,328.833 270.5,275.5 Z"/></g>
<g><path style="opacity:1" fill="#e07070" d="M 238.5,281.5 C 246.167,281.5 253.833,281.5 261.5,281.5C 261.667,332.501 261.5,383.501 261,434.5C 253.587,435.481 246.087,435.814 238.5,435.5C 238.5,384.167 238.5,332.833 238.5,281.5 Z"/></g>
<g><path style="opacity:1" fill="#050909" d="M 62.5,307.5 C 94.8351,307.333 127.168,307.5 159.5,308C 162.611,311.889 161.944,314.889 157.5,317C 126.167,317.667 94.8333,317.667 63.5,317C 59.9559,314.127 59.6225,310.96 62.5,307.5 Z"/></g>
<g><path style="opacity:1" fill="#f2d5a9" d="M 293.5,318.5 C 301.087,318.186 308.587,318.519 316,319.5C 316.83,358.071 316.663,396.571 315.5,435C 307.92,435.813 300.42,435.647 293,434.5C 292.173,395.762 292.34,357.095 293.5,318.5 Z"/></g>
<g><path style="opacity:0.776" fill="#68b5bf" d="M 338.5,329.5 C 338.5,364.833 338.5,400.167 338.5,435.5C 333.968,435.818 329.634,435.485 325.5,434.5C 329.5,434.5 333.5,434.5 337.5,434.5C 337.168,399.329 337.502,364.329 338.5,329.5 Z"/></g>
<g><path style="opacity:1" fill="#c0dca1" d="M 347.5,335.5 C 355.167,335.5 362.833,335.5 370.5,335.5C 370.5,368.833 370.5,402.167 370.5,435.5C 362.913,435.814 355.413,435.481 348,434.5C 347.5,401.502 347.333,368.502 347.5,335.5 Z"/></g>
<g><path style="opacity:1" fill="#0e1415" d="M 63.5,337.5 C 94.8351,337.333 126.168,337.5 157.5,338C 162.701,341.24 162.701,344.574 157.5,348C 126.5,348.667 95.5,348.667 64.5,348C 59.5386,345.008 59.2052,341.508 63.5,337.5 Z"/></g>
<g><path style="opacity:0.753" fill="#5c9fa9" d="M 393.5,356.5 C 393.5,382.833 393.5,409.167 393.5,435.5C 388.968,435.818 384.634,435.485 380.5,434.5C 384.5,434.5 388.5,434.5 392.5,434.5C 392.169,408.328 392.502,382.328 393.5,356.5 Z"/></g>
<g><path style="opacity:1" fill="#b29ddb" d="M 403.5,362.5 C 410.833,362.5 418.167,362.5 425.5,362.5C 425.5,386.5 425.5,410.5 425.5,434.5C 418.167,434.5 410.833,434.5 403.5,434.5C 403.5,410.5 403.5,386.5 403.5,362.5 Z"/></g>
<g><path style="opacity:0.757" fill="#7c6d99" d="M 403.5,362.5 C 403.5,386.5 403.5,410.5 403.5,434.5C 410.833,434.5 418.167,434.5 425.5,434.5C 418.018,435.492 410.352,435.825 402.5,435.5C 402.169,410.994 402.502,386.661 403.5,362.5 Z"/></g>
<g><path style="opacity:0.999" fill="#030607" d="M 63.5,368.5 C 94.8351,368.333 126.168,368.5 157.5,369C 161.944,371.111 162.611,374.111 159.5,378C 127.167,378.667 94.8333,378.667 62.5,378C 59.7533,374.553 60.0866,371.386 63.5,368.5 Z"/></g>
<g><path style="opacity:0.999" fill="#010203" d="M 63.5,399.5 C 95.1684,399.333 126.835,399.5 158.5,400C 162.482,403.048 162.482,406.048 158.5,409C 126.5,409.667 94.5,409.667 62.5,409C 59.7533,405.553 60.0866,402.386 63.5,399.5 Z"/></g>
</svg>
