<?xml version="1.0" encoding="UTF-8"?>
<!DOCTYPE svg PUBLIC "-//W3C//DTD SVG 1.1//EN" "http://www.w3.org/Graphics/SVG/1.1/DTD/svg11.dtd">
<svg xmlns="http://www.w3.org/2000/svg" version="1.1" width="512px" height="512px" style="shape-rendering:geometricPrecision; text-rendering:geometricPrecision; image-rendering:optimizeQuality; fill-rule:evenodd; clip-rule:evenodd" xmlns:xlink="http://www.w3.org/1999/xlink">
<g><path style="opacity:0.999" fill="#1e2e3d" d="M 243.5,0.5 C 243.5,63.1667 243.5,125.833 243.5,188.5C 218.5,188.5 193.5,188.5 168.5,188.5C 168.171,130.762 168.504,73.0952 169.5,15.5C 193.206,6.42508 217.873,1.42508 243.5,0.5 Z"/></g>
<g><path style="opacity:0.999" fill="#192733" d="M 243.5,0.5 C 341.274,-1.20119 417.441,38.1321 472,118.5C 494.698,155.427 507.865,195.427 511.5,238.5C 511.5,250.167 511.5,261.833 511.5,273.5C 500.966,373.518 450.633,445.684 360.5,490C 334.11,501.263 306.776,508.429 278.5,511.5C 266.5,511.5 254.5,511.5 242.5,511.5C 243.496,451.571 243.829,391.571 243.5,331.5C 279.835,331.667 316.168,331.5 352.5,331C 355.134,328.707 355.134,326.54 352.5,324.5C 316.337,323.502 280.004,323.168 243.5,323.5C 243.5,320.167 243.5,316.833 243.5,313.5C 279.835,313.667 316.168,313.5 352.5,313C 359.356,271.845 366.356,230.678 373.5,189.5C 333.5,189.5 293.5,189.5 253.5,189.5C 250.375,188.521 247.042,188.187 243.5,188.5C 243.5,125.833 243.5,63.1667 243.5,0.5 Z"/></g>
<g><path style="opacity:1" fill="#1f303f" d="M 169.5,15.5 C 168.504,73.0952 168.171,130.762 168.5,188.5C 165.753,188.187 163.086,188.52 160.5,189.5C 160.624,190.107 160.957,190.44 161.5,190.5C 172.299,231.362 182.632,272.362 192.5,313.5C 209.5,313.5 226.5,313.5 243.5,313.5C 243.5,316.833 243.5,320.167 243.5,323.5C 280.004,323.168 316.337,323.502 352.5,324.5C 298.5,324.5 244.5,324.5 190.5,324.5C 177.628,270.345 164.128,216.345 150,162.5C 149.5,162 149,161.5 148.5,161C 135.833,160.333 123.167,160.333 110.5,161C 108.38,162.523 108.047,164.356 109.5,166.5C 121.148,167.499 132.814,167.832 144.5,167.5C 152.985,201.107 161.318,234.774 169.5,268.5C 168.169,344.402 168.169,420.402 169.5,496.5C 141.591,487.387 116.591,473.387 94.5,454.5C 95.8333,322.167 95.8333,189.833 94.5,57.5C 116.591,38.6134 141.591,24.6134 169.5,15.5 Z"/></g>
<g><path style="opacity:0.999" fill="#203242" d="M 94.5,57.5 C 95.8333,189.833 95.8333,322.167 94.5,454.5C 36.6777,406.527 5.01107,344.861 -0.5,269.5C -0.5,260.5 -0.5,251.5 -0.5,242.5C 5.01107,167.139 36.6777,105.473 94.5,57.5 Z"/></g>
<g><path style="opacity:1" fill="#076598" d="M 352.5,324.5 C 355.134,326.54 355.134,328.707 352.5,331C 316.168,331.5 279.835,331.667 243.5,331.5C 224.497,331.667 205.497,331.5 186.5,331C 186,330.5 185.5,330 185,329.5C 179.981,309.09 174.814,288.756 169.5,268.5C 161.318,234.774 152.985,201.107 144.5,167.5C 132.814,167.832 121.148,167.499 109.5,166.5C 108.047,164.356 108.38,162.523 110.5,161C 123.167,160.333 135.833,160.333 148.5,161C 149,161.5 149.5,162 150,162.5C 164.128,216.345 177.628,270.345 190.5,324.5C 244.5,324.5 298.5,324.5 352.5,324.5 Z"/></g>
<g><path style="opacity:1" fill="#3e4534" d="M 168.5,188.5 C 193.5,188.5 218.5,188.5 243.5,188.5C 247.042,188.187 250.375,188.521 253.5,189.5C 222.662,189.169 191.995,189.502 161.5,190.5C 160.957,190.44 160.624,190.107 160.5,189.5C 163.086,188.52 165.753,188.187 168.5,188.5 Z"/></g>
<g><path style="opacity:1" fill="#fdd215" d="M 253.5,189.5 C 293.5,189.5 333.5,189.5 373.5,189.5C 366.356,230.678 359.356,271.845 352.5,313C 316.168,313.5 279.835,313.667 243.5,313.5C 226.5,313.5 209.5,313.5 192.5,313.5C 182.632,272.362 172.299,231.362 161.5,190.5C 191.995,189.502 222.662,189.169 253.5,189.5 Z"/></g>
<g><path style="opacity:1" fill="#283032" d="M 252.5,227.5 C 273.687,239.69 294.354,252.69 314.5,266.5C 312.813,267.568 311.146,267.401 309.5,266C 290.033,254.031 270.7,241.864 251.5,229.5C 251.863,228.817 252.196,228.15 252.5,227.5 Z"/></g>
<g><path style="opacity:1" fill="#293032" d="M 202.5,238.5 C 229.799,254.111 257.132,269.778 284.5,285.5C 285.687,286.824 285.354,287.824 283.5,288.5C 256.167,272.5 228.833,256.5 201.5,240.5C 201.863,239.817 202.196,239.15 202.5,238.5 Z"/></g>
<g><path style="opacity:0.999" fill="#1e2e3d" d="M 169.5,268.5 C 174.814,288.756 179.981,309.09 185,329.5C 185.5,330 186,330.5 186.5,331C 205.497,331.5 224.497,331.667 243.5,331.5C 243.829,391.571 243.496,451.571 242.5,511.5C 239.5,511.5 236.5,511.5 233.5,511.5C 211.519,509.304 190.186,504.304 169.5,496.5C 168.169,420.402 168.169,344.402 169.5,268.5 Z"/></g>
<g><path style="opacity:1" fill="#b33b31" d="M 202.5,342.5 C 213.354,342.518 217.854,347.851 216,358.5C 212.417,363.474 207.583,365.308 201.5,364C 195.397,360.96 193.231,356.126 195,349.5C 196.742,346.254 199.242,343.921 202.5,342.5 Z"/></g>
<g><path style="opacity:1" fill="#b33b31" d="M 325.5,343.5 C 336.15,341.702 341.317,346.035 341,356.5C 338.202,363.648 333.036,366.148 325.5,364C 316.213,357.132 316.213,350.298 325.5,343.5 Z"/></g>
</svg>
