<?xml version="1.0" encoding="UTF-8"?>
<!DOCTYPE svg PUBLIC "-//W3C//DTD SVG 1.1//EN" "http://www.w3.org/Graphics/SVG/1.1/DTD/svg11.dtd">
<svg xmlns="http://www.w3.org/2000/svg" version="1.1" width="512px" height="512px" style="shape-rendering:geometricPrecision; text-rendering:geometricPrecision; image-rendering:optimizeQuality; fill-rule:evenodd; clip-rule:evenodd" xmlns:xlink="http://www.w3.org/1999/xlink">
<g><path style="opacity:0.985" fill="#020302" d="M 241.5,7.5 C 244.518,7.33537 247.518,7.50204 250.5,8C 318.073,37.0377 385.573,66.2044 453,95.5C 453.862,97.087 454.529,98.7536 455,100.5C 455.925,162.845 455.591,225.179 454,287.5C 453.344,295.26 452.177,302.927 450.5,310.5C 477.698,344.109 481.865,380.442 463,419.5C 440.686,454.405 408.853,469.572 367.5,465C 362.533,464.383 357.7,463.217 353,461.5C 320.452,483.268 284.785,497.268 246,503.5C 173.875,491.624 116.875,455.957 75,396.5C 52.9621,362.054 40.2954,324.387 37,283.5C 36.3333,221.5 36.3333,159.5 37,97.5C 38.1667,96.3333 39.3333,95.1667 40.5,94C 107.806,65.6289 174.806,36.7956 241.5,7.5 Z"/></g>
<g><path style="opacity:1" fill="#03e198" d="M 427.5,293.5 C 428.446,231.508 428.779,169.508 428.5,107.5C 365.28,81.551 302.614,54.551 240.5,26.5C 243.682,24.0439 247.015,23.8772 250.5,26C 312.833,52.8333 375.167,79.6667 437.5,106.5C 438.667,163.497 438.833,220.497 438,277.5C 437.334,284.493 436.834,291.493 436.5,298.5C 433.052,297.61 430.052,295.943 427.5,293.5 Z"/></g>
<g><path style="opacity:1" fill="#6af1bf" d="M 240.5,26.5 C 302.614,54.551 365.28,81.551 428.5,107.5C 428.779,169.508 428.446,231.508 427.5,293.5C 424.404,292.453 421.404,291.12 418.5,289.5C 418.167,287.5 417.833,285.5 417.5,283.5C 418.141,255.675 418.474,227.842 418.5,200C 418.658,173.415 418.158,146.915 417,120.5C 361.05,95.6233 304.883,71.1233 248.5,47C 246.833,46.3333 245.167,46.3333 243.5,47C 187.5,71 131.5,95 75.5,119C 74.7894,120.255 73.956,121.421 73,122.5C 72.3333,173.167 72.3333,223.833 73,274.5C 81.9409,366.879 130.108,428.712 217.5,460C 226.616,463.055 235.949,465.222 245.5,466.5C 271.314,461.84 295.48,452.84 318,439.5C 323.069,444.405 328.569,448.738 334.5,452.5C 307.205,470.327 277.372,481.993 245,487.5C 162.423,471.238 103.756,424.904 69,348.5C 60.0953,325.312 54.7619,301.312 53,276.5C 52.1667,219.83 52.3334,163.164 53.5,106.5C 115.739,79.5455 178.072,52.8789 240.5,26.5 Z"/></g>
<g><path style="opacity:1" fill="#ccccd1" d="M 256.5,68.5 C 204.526,90.8185 152.526,113.152 100.5,135.5C 99.3334,183.83 99.1667,232.163 100,280.5C 103.709,336.923 127.209,382.923 170.5,418.5C 120.058,383.65 92.8911,335.316 89,273.5C 88.1667,225.83 88.3334,178.163 89.5,130.5C 141.462,107.68 193.628,85.3464 246,63.5C 249.652,65.078 253.152,66.7446 256.5,68.5 Z"/></g>
<g><path style="opacity:1" fill="#ebeef0" d="M 256.5,68.5 C 305.116,88.8727 353.616,109.539 402,130.5C 402.796,181.512 402.63,232.512 401.5,283.5C 386.021,281.608 370.688,282.275 355.5,285.5C 354.833,263.5 354.167,241.5 353.5,219.5C 349.788,204.458 340.122,198.125 324.5,200.5C 329.841,166.336 319.508,138.17 293.5,116C 269.194,99.5756 243.194,96.2422 215.5,106C 190.15,117.347 174.316,136.513 168,163.5C 166.606,175.78 166.106,188.114 166.5,200.5C 152.555,198.216 143.055,203.55 138,216.5C 137.333,265.833 137.333,315.167 138,364.5C 140.95,373.62 147.116,378.954 156.5,380.5C 200.997,381.499 245.664,381.832 290.5,381.5C 290.263,382.791 290.596,383.791 291.5,384.5C 293.186,400.062 298.52,414.228 307.5,427C 288.171,438.278 267.504,446.111 245.5,450.5C 218.046,445.249 193.046,434.582 170.5,418.5C 127.209,382.923 103.709,336.923 100,280.5C 99.1667,232.163 99.3334,183.83 100.5,135.5C 152.526,113.152 204.526,90.8185 256.5,68.5 Z"/></g>
<g><path style="opacity:1" fill="#a498a4" d="M 296.5,200.5 C 296.906,189.436 296.406,178.436 295,167.5C 292.534,160.725 288.7,154.892 283.5,150C 282.906,149.536 282.239,149.369 281.5,149.5C 263.633,131.124 243.3,127.957 220.5,140C 211.224,146.388 204.724,154.888 201,165.5C 199.588,177.104 199.088,188.771 199.5,200.5C 195.167,200.5 190.833,200.5 186.5,200.5C 182.852,175.08 188.852,152.413 204.5,132.5C 212.893,124.468 222.893,119.302 234.5,117C 266.482,113.404 289.649,125.904 304,154.5C 305.535,158.773 306.869,163.106 308,167.5C 308.5,178.495 308.667,189.495 308.5,200.5C 304.5,200.5 300.5,200.5 296.5,200.5 Z"/></g>
<g><path style="opacity:1" fill="#7d717d" d="M 204.5,132.5 C 188.852,152.413 182.852,175.08 186.5,200.5C 185.167,200.5 183.833,200.5 182.5,200.5C 178.269,174.559 184.935,152.059 202.5,133C 203.094,132.536 203.761,132.369 204.5,132.5 Z"/></g>
<g><path style="opacity:1" fill="#eaedef" d="M 239.5,148.5 C 258.139,147.558 270.306,155.891 276,173.5C 276.5,182.494 276.666,191.494 276.5,200.5C 256.167,200.5 235.833,200.5 215.5,200.5C 215.071,189.755 215.571,179.088 217,168.5C 221.407,158.234 228.907,151.567 239.5,148.5 Z"/></g>
<g><path style="opacity:1" fill="#817481" d="M 281.5,149.5 C 282.239,149.369 282.906,149.536 283.5,150C 288.7,154.892 292.534,160.725 295,167.5C 296.406,178.436 296.906,189.436 296.5,200.5C 295.167,200.5 293.833,200.5 292.5,200.5C 292.666,191.161 292.5,181.827 292,172.5C 290.51,163.842 287.01,156.175 281.5,149.5 Z"/></g>
<g><path style="opacity:1" fill="#fddf76" d="M 325.5,216.5 C 325.5,244.833 325.5,273.167 325.5,301.5C 305.55,317.727 294.216,338.727 291.5,364.5C 245.928,364.83 200.428,364.497 155,363.5C 153.343,315.583 153.01,267.583 154,219.5C 154.833,218.667 155.667,217.833 156.5,217C 212.832,216.5 269.166,216.333 325.5,216.5 Z"/></g>
<g><path style="opacity:1" fill="#fecf64" d="M 325.5,216.5 C 329.584,216.043 333.417,216.71 337,218.5C 337.833,243.84 337.666,269.173 336.5,294.5C 332.636,296.594 328.969,298.928 325.5,301.5C 325.5,273.167 325.5,244.833 325.5,216.5 Z"/></g>
<g><path style="opacity:1" fill="#bfc1c3" d="M 353.5,219.5 C 354.167,241.5 354.833,263.5 355.5,285.5C 355.44,286.043 355.107,286.376 354.5,286.5C 353.5,264.177 353.167,241.843 353.5,219.5 Z"/></g>
<g><path style="opacity:1" fill="#030302" d="M 237.5,233.5 C 267.964,232.804 281.13,247.471 277,277.5C 275.199,283.127 272.033,287.794 267.5,291.5C 266.667,305.154 266.167,318.821 266,332.5C 261.082,345.045 251.915,349.879 238.5,347C 231.851,343.686 227.351,338.519 225,331.5C 224.667,318.167 224.333,304.833 224,291.5C 211.591,279.246 209.258,265.246 217,249.5C 222.141,241.864 228.974,236.53 237.5,233.5 Z"/></g>
<g><path style="opacity:1" fill="#e4e7e9" d="M 240.5,249.5 C 259.599,249.43 266.099,258.43 260,276.5C 257.306,279.194 254.64,281.86 252,284.5C 251.667,299.167 251.333,313.833 251,328.5C 247.952,332.01 244.619,332.343 241,329.5C 240.667,314.833 240.333,300.167 240,285.5C 238,282.167 235.333,279.5 232,277.5C 225.35,265.162 228.184,255.829 240.5,249.5 Z"/></g>
<g><path style="opacity:1" fill="#88c7fc" d="M 420.5,308.5 C 454.523,342.678 459.356,380.678 435,422.5C 429.934,428.059 425.1,433.725 420.5,439.5C 383.446,457.774 350.946,451.774 323,421.5C 301.401,390.354 301.068,359.021 322,327.5C 350.077,296.19 382.91,289.857 420.5,308.5 Z"/></g>
<g><path style="opacity:1" fill="#5db1f6" d="M 420.5,308.5 C 452.476,329.243 463.976,358.243 455,395.5C 448.875,414.449 437.375,429.116 420.5,439.5C 425.1,433.725 429.934,428.059 435,422.5C 459.356,380.678 454.523,342.678 420.5,308.5 Z"/></g>
<g><path style="opacity:1" fill="#030404" d="M 415.5,328.5 C 427.761,327.211 436.261,332.211 441,343.5C 442.406,350.141 441.073,356.141 437,361.5C 418.779,379.721 400.613,397.887 382.5,416C 375.664,420.168 368.664,420.501 361.5,417C 349,405.833 337.167,394 326,381.5C 320.579,369.515 323.412,360.015 334.5,353C 342.099,350.61 349.433,351.277 356.5,355C 361.348,360.015 366.348,364.848 371.5,369.5C 383.682,358.151 395.349,346.318 406.5,334C 409.596,332.128 412.596,330.295 415.5,328.5 Z"/></g>
<g><path style="opacity:1" fill="#e4e7e9" d="M 418.5,344.5 C 424.934,344.093 426.767,346.759 424,352.5C 407.167,369.333 390.333,386.167 373.5,403C 372.167,403.667 370.833,403.667 369.5,403C 359.667,393.167 349.833,383.333 340,373.5C 338.624,368.545 340.458,366.379 345.5,367C 352.864,374.698 360.53,382.031 368.5,389C 370.167,389.667 371.833,389.667 373.5,389C 389.006,374.661 404.006,359.827 418.5,344.5 Z"/></g>
<g><path style="opacity:1" fill="#abadaf" d="M 156.5,380.5 C 201.5,380.5 246.5,380.5 291.5,380.5C 291.5,381.833 291.5,383.167 291.5,384.5C 290.596,383.791 290.263,382.791 290.5,381.5C 245.664,381.832 200.997,381.499 156.5,380.5 Z"/></g>
</svg>
