<?xml version="1.0" encoding="UTF-8"?>
<!DOCTYPE svg PUBLIC "-//W3C//DTD SVG 1.1//EN" "http://www.w3.org/Graphics/SVG/1.1/DTD/svg11.dtd">
<svg xmlns="http://www.w3.org/2000/svg" version="1.1" width="512px" height="512px" style="shape-rendering:geometricPrecision; text-rendering:geometricPrecision; image-rendering:optimizeQuality; fill-rule:evenodd; clip-rule:evenodd" xmlns:xlink="http://www.w3.org/1999/xlink">
<g><path style="opacity:0.927" fill="#000000" d="M 294.5,30.5 C 339.906,31.9533 376.739,50.2866 405,85.5C 421.54,108.449 430.54,134.116 432,162.5C 438.191,157.065 444.191,151.398 450,145.5C 453.333,148.833 456.667,152.167 460,155.5C 460.982,156.759 461.315,158.092 461,159.5C 450.833,169 440.667,178.5 430.5,188C 426.589,191.597 422.256,192.263 417.5,190C 406.65,178.65 395.983,167.15 385.5,155.5C 388.874,151.124 392.874,147.458 397.5,144.5C 403.517,149.684 409.017,155.35 414,161.5C 411.277,118.879 391.777,86.3793 355.5,64C 309.863,40.4343 265.863,43.101 223.5,72C 205.369,85.7934 192.202,103.293 184,124.5C 178.491,122.561 173.324,120.061 168.5,117C 192.903,62.6252 234.903,33.7918 294.5,30.5 Z"/></g>
<g><path style="opacity:0.961" fill="#010000" d="M 281.5,79.5 C 325.51,75.7451 357.344,93.4118 377,132.5C 391.656,174.049 382.489,209.216 349.5,238C 323.729,256.183 295.729,260.516 265.5,251C 221.02,231.222 202.186,197.055 209,148.5C 219.095,110.569 243.261,87.569 281.5,79.5 Z"/></g>
<g><path style="opacity:1" fill="#fc9610" d="M 284.5,95.5 C 321.314,92.9807 347.481,108.314 363,141.5C 374.65,183.025 361.483,213.858 323.5,234C 286.64,246.432 256.807,236.932 234,205.5C 214.401,165.735 222.234,132.568 257.5,106C 266.178,101.315 275.178,97.8145 284.5,95.5 Z"/></g>
<g><path style="opacity:1" fill="#020100" d="M 287.5,111.5 C 292.833,111.5 298.167,111.5 303.5,111.5C 303.5,116.833 303.5,122.167 303.5,127.5C 317.887,129.221 325.887,137.221 327.5,151.5C 322.167,151.5 316.833,151.5 311.5,151.5C 311.167,146.5 308.5,143.833 303.5,143.5C 303.5,148.833 303.5,154.167 303.5,159.5C 320.418,161.91 328.252,171.576 327,188.5C 323.478,200.191 315.645,206.524 303.5,207.5C 303.5,212.833 303.5,218.167 303.5,223.5C 298.167,223.5 292.833,223.5 287.5,223.5C 287.5,218.167 287.5,212.833 287.5,207.5C 273.221,205.887 265.221,197.887 263.5,183.5C 268.833,183.5 274.167,183.5 279.5,183.5C 279.833,188.5 282.5,191.167 287.5,191.5C 287.5,186.167 287.5,180.833 287.5,175.5C 272.53,173.694 264.53,165.194 263.5,150C 265.869,136.464 273.869,128.964 287.5,127.5C 287.5,122.167 287.5,116.833 287.5,111.5 Z"/></g>
<g><path style="opacity:0.928" fill="#000000" d="M 165.5,143.5 C 168.32,143.248 170.986,143.748 173.5,145C 184.35,156.35 195.017,167.85 205.5,179.5C 202.126,183.876 198.126,187.542 193.5,190.5C 187.483,185.316 181.983,179.65 177,173.5C 179.865,217.017 200.031,249.851 237.5,272C 285.246,295.457 330.246,291.123 372.5,259C 387.912,245.592 399.412,229.425 407,210.5C 412.509,212.439 417.676,214.939 422.5,218C 401.284,266.204 364.618,294.537 312.5,303C 254.274,307.968 209.441,286.134 178,237.5C 166.415,217.406 160.081,195.74 159,172.5C 152.809,177.935 146.809,183.602 141,189.5C 137.333,185.833 133.667,182.167 130,178.5C 129.251,177.365 129.417,176.365 130.5,175.5C 142.213,164.783 153.879,154.116 165.5,143.5 Z"/></g>
<g><path style="opacity:1" fill="#f49110" d="M 284.5,143.5 C 285.5,143.5 286.5,143.5 287.5,143.5C 287.5,148.833 287.5,154.167 287.5,159.5C 281.048,158.608 278.548,154.941 280,148.5C 281.025,146.313 282.525,144.646 284.5,143.5 Z"/></g>
<g><path style="opacity:1" fill="#f39110" d="M 303.5,175.5 C 310.955,177.076 313.122,181.41 310,188.5C 308.266,190.451 306.099,191.451 303.5,191.5C 303.5,186.167 303.5,180.833 303.5,175.5 Z"/></g>
<g><path style="opacity:0.978" fill="#010000" d="M 15.5,463.5 C 31.4383,461.354 47.4383,459.687 63.5,458.5C 63.5,428.167 63.5,397.833 63.5,367.5C 47.5,367.5 31.5,367.5 15.5,367.5C 15.5,362.167 15.5,356.833 15.5,351.5C 31.5,351.5 47.5,351.5 63.5,351.5C 63.1459,348.039 64.4792,345.539 67.5,344C 91.5,343.333 115.5,343.333 139.5,344C 142.521,345.539 143.854,348.039 143.5,351.5C 145.199,351.66 146.866,351.494 148.5,351C 155.167,347 161.833,343 168.5,339C 190.221,327.932 213.221,324.266 237.5,328C 252.634,331.6 267.301,336.6 281.5,343C 302.167,343.333 322.833,343.667 343.5,344C 360.15,349.337 368.317,360.837 368,378.5C 392.255,363.954 416.755,349.788 441.5,336C 458.899,331.35 472.399,336.517 482,351.5C 488.68,367.612 485.513,381.446 472.5,393C 430.826,417.506 388.826,441.506 346.5,465C 328.899,472.267 310.566,476.101 291.5,476.5C 255.807,472.923 220.14,469.09 184.5,465C 170.794,464.411 157.128,464.911 143.5,466.5C 143.665,469.518 143.498,472.518 143,475.5C 142.5,477.333 141.333,478.5 139.5,479C 115.5,479.667 91.5,479.667 67.5,479C 65.5903,477.299 63.5903,475.799 61.5,474.5C 46.2283,476.752 30.895,478.419 15.5,479.5C 14.7892,473.99 14.7892,468.657 15.5,463.5 Z"/></g>
<g><path style="opacity:1" fill="#fdc376" d="M 202.5,343.5 C 214.872,343.185 227.205,343.685 239.5,345C 252.067,349.077 264.4,353.744 276.5,359C 297.833,359.333 319.167,359.667 340.5,360C 351.41,365.327 354.243,373.494 349,384.5C 346.736,387.433 343.902,389.6 340.5,391C 312.169,391.5 283.835,391.667 255.5,391.5C 255.5,396.833 255.5,402.167 255.5,407.5C 285.502,407.667 315.502,407.5 345.5,407C 348.167,406.333 350.833,405.667 353.5,405C 385.329,387.253 416.996,369.253 448.5,351C 460.327,349.672 466.994,354.839 468.5,366.5C 468.911,371.509 467.244,375.676 463.5,379C 421.622,403.773 379.288,427.773 336.5,451C 321.293,457.308 305.46,460.141 289,459.5C 249.987,455.784 210.987,451.784 172,447.5C 162.509,448.36 153.009,449.027 143.5,449.5C 143.5,422.167 143.5,394.833 143.5,367.5C 147.936,367.79 152.27,367.29 156.5,366C 166.002,360.081 175.669,354.414 185.5,349C 191.137,346.682 196.803,344.849 202.5,343.5 Z"/></g>
<g><path style="opacity:1" fill="#3d9ae2" d="M 79.5,359.5 C 95.5,359.5 111.5,359.5 127.5,359.5C 127.5,394.167 127.5,428.833 127.5,463.5C 111.5,463.5 95.5,463.5 79.5,463.5C 79.5,428.833 79.5,394.167 79.5,359.5 Z"/></g>
<g><path style="opacity:1" fill="#59a9e6" d="M 15.5,367.5 C 31.5,367.5 47.5,367.5 63.5,367.5C 63.5,397.833 63.5,428.167 63.5,458.5C 47.4383,459.687 31.4383,461.354 15.5,463.5C 15.5,431.5 15.5,399.5 15.5,367.5 Z"/></g>
<g><path style="opacity:1" fill="#000000" d="M 95.5,439.5 C 100.833,439.5 106.167,439.5 111.5,439.5C 111.5,444.833 111.5,450.167 111.5,455.5C 106.167,455.5 100.833,455.5 95.5,455.5C 95.5,450.167 95.5,444.833 95.5,439.5 Z"/></g>
</svg>
