<?xml version="1.0" encoding="UTF-8"?>
<!DOCTYPE svg PUBLIC "-//W3C//DTD SVG 1.1//EN" "http://www.w3.org/Graphics/SVG/1.1/DTD/svg11.dtd">
<svg xmlns="http://www.w3.org/2000/svg" version="1.1" width="512px" height="512px" style="shape-rendering:geometricPrecision; text-rendering:geometricPrecision; image-rendering:optimizeQuality; fill-rule:evenodd; clip-rule:evenodd" xmlns:xlink="http://www.w3.org/1999/xlink">
<g><path style="opacity:1" fill="#c70a50" d="M 479.5,111.5 C 330.167,111.5 180.833,111.5 31.5,111.5C 31.3334,98.8289 31.5001,86.1623 32,73.5C 33.8333,69 37,65.8333 41.5,64C 184.167,63.3333 326.833,63.3333 469.5,64C 474,65.8333 477.167,69 479,73.5C 479.5,86.1623 479.667,98.8289 479.5,111.5 Z"/></g>
<g><path style="opacity:1" fill="#0d143c" d="M 380.5,79.5 C 388.658,78.8229 392.158,82.4895 391,90.5C 388.774,94.8608 385.274,96.3608 380.5,95C 376.139,92.7742 374.639,89.2742 376,84.5C 377.025,82.313 378.525,80.6464 380.5,79.5 Z"/></g>
<g><path style="opacity:1" fill="#1999c3" d="M 412.5,79.5 C 420.658,78.8229 424.158,82.4895 423,90.5C 420.774,94.8608 417.274,96.3608 412.5,95C 408.139,92.7742 406.639,89.2742 408,84.5C 409.025,82.313 410.525,80.6464 412.5,79.5 Z"/></g>
<g><path style="opacity:1" fill="#f8ad06" d="M 444.5,79.5 C 452.658,78.8229 456.158,82.4895 455,90.5C 452.774,94.8608 449.274,96.3608 444.5,95C 440.139,92.7742 438.639,89.2742 440,84.5C 441.025,82.313 442.525,80.6464 444.5,79.5 Z"/></g>
<g><path style="opacity:1" fill="#efefef" d="M 31.5,111.5 C 180.833,111.5 330.167,111.5 479.5,111.5C 479.667,198.834 479.5,286.167 479,373.5C 477.167,378 474,381.167 469.5,383C 434.835,383.5 400.168,383.667 365.5,383.5C 371.797,373.571 376.463,362.904 379.5,351.5C 394.837,351.667 410.17,351.5 425.5,351C 428.667,350.5 430.5,348.667 431,345.5C 432.124,340.579 430.291,337.412 425.5,336C 411.504,335.5 397.504,335.333 383.5,335.5C 383.5,334.167 383.5,332.833 383.5,331.5C 383.5,327.5 383.5,323.5 383.5,319.5C 397.504,319.667 411.504,319.5 425.5,319C 429.624,318.018 431.624,315.352 431.5,311C 431.277,307.112 429.277,304.779 425.5,304C 411.504,303.5 397.504,303.333 383.5,303.5C 383.5,298.167 383.5,292.833 383.5,287.5C 397.504,287.667 411.504,287.5 425.5,287C 429.624,286.018 431.624,283.352 431.5,279C 431.277,275.112 429.277,272.779 425.5,272C 411.504,271.5 397.504,271.333 383.5,271.5C 383.5,260.833 383.5,250.167 383.5,239.5C 395.505,239.667 407.505,239.5 419.5,239C 424.185,237.65 427.685,234.817 430,230.5C 431.638,205.229 431.972,179.896 431,154.5C 428.635,148.798 424.469,145.298 418.5,144C 365.168,143.5 311.834,143.333 258.5,143.5C 256.5,143.5 254.5,143.5 252.5,143.5C 198.499,143.333 144.499,143.5 90.5,144C 85.6667,146.167 82.1667,149.667 80,154.5C 79.0377,179.883 79.3711,205.216 81,230.5C 83.2215,234.388 86.3882,237.221 90.5,239C 100.161,239.5 109.828,239.666 119.5,239.5C 119.5,250.167 119.5,260.833 119.5,271.5C 107.829,271.333 96.1619,271.5 84.5,272C 79.4319,274.983 78.2652,279.149 81,284.5C 81.9025,285.701 83.0692,286.535 84.5,287C 96.1619,287.5 107.829,287.667 119.5,287.5C 119.5,292.833 119.5,298.167 119.5,303.5C 107.829,303.333 96.1619,303.5 84.5,304C 79.4319,306.983 78.2652,311.149 81,316.5C 81.9025,317.701 83.0692,318.535 84.5,319C 96.1619,319.5 107.829,319.667 119.5,319.5C 119.324,324.88 119.658,330.213 120.5,335.5C 108.495,335.333 96.4954,335.5 84.5,336C 79.4319,338.983 78.2652,343.149 81,348.5C 81.9025,349.701 83.0692,350.535 84.5,351C 97.5,351.333 110.5,351.667 123.5,352C 127.243,362.98 131.91,373.48 137.5,383.5C 105.498,383.667 73.4983,383.5 41.5,383C 37,381.167 33.8333,378 32,373.5C 31.5,286.167 31.3333,198.834 31.5,111.5 Z"/></g>
<g><path style="opacity:1" fill="#d1d2d2" d="M 252.5,143.5 C 212.702,153.95 172.702,164.117 132.5,174C 130.333,174.833 128.833,176.333 128,178.5C 127.333,229.5 127.333,280.5 128,331.5C 129.75,350.251 135.584,367.585 145.5,383.5C 142.833,383.5 140.167,383.5 137.5,383.5C 131.91,373.48 127.243,362.98 123.5,352C 110.5,351.667 97.5,351.333 84.5,351C 83.0692,350.535 81.9025,349.701 81,348.5C 78.2652,343.149 79.4319,338.983 84.5,336C 96.4954,335.5 108.495,335.333 120.5,335.5C 119.658,330.213 119.324,324.88 119.5,319.5C 107.829,319.667 96.1619,319.5 84.5,319C 83.0692,318.535 81.9025,317.701 81,316.5C 78.2652,311.149 79.4319,306.983 84.5,304C 96.1619,303.5 107.829,303.333 119.5,303.5C 119.5,298.167 119.5,292.833 119.5,287.5C 107.829,287.667 96.1619,287.5 84.5,287C 83.0692,286.535 81.9025,285.701 81,284.5C 78.2652,279.149 79.4319,274.983 84.5,272C 96.1619,271.5 107.829,271.333 119.5,271.5C 119.5,260.833 119.5,250.167 119.5,239.5C 109.828,239.666 100.161,239.5 90.5,239C 86.3882,237.221 83.2215,234.388 81,230.5C 79.3711,205.216 79.0377,179.883 80,154.5C 82.1667,149.667 85.6667,146.167 90.5,144C 144.499,143.5 198.499,143.333 252.5,143.5 Z"/></g>
<g><path style="opacity:1" fill="#d1d1d2" d="M 258.5,143.5 C 311.834,143.333 365.168,143.5 418.5,144C 424.469,145.298 428.635,148.798 431,154.5C 431.972,179.896 431.638,205.229 430,230.5C 427.685,234.817 424.185,237.65 419.5,239C 407.505,239.5 395.505,239.667 383.5,239.5C 383.667,219.164 383.5,198.831 383,178.5C 382.626,177.584 382.126,176.75 381.5,176C 340.449,164.989 299.449,154.155 258.5,143.5 Z"/></g>
<g><path style="opacity:0.997" fill="#019fc7" d="M 252.5,143.5 C 254.5,143.5 256.5,143.5 258.5,143.5C 299.449,154.155 340.449,164.989 381.5,176C 382.126,176.75 382.626,177.584 383,178.5C 383.5,198.831 383.667,219.164 383.5,239.5C 383.5,250.167 383.5,260.833 383.5,271.5C 383.5,276.833 383.5,282.167 383.5,287.5C 383.5,292.833 383.5,298.167 383.5,303.5C 383.5,308.833 383.5,314.167 383.5,319.5C 383.5,323.5 383.5,327.5 383.5,331.5C 382.612,338.137 381.279,344.803 379.5,351.5C 376.463,362.904 371.797,373.571 365.5,383.5C 351.731,404.429 333.065,419.262 309.5,428C 293.5,434 277.5,440 261.5,446C 257.5,446.667 253.5,446.667 249.5,446C 233.5,440 217.5,434 201.5,428C 177.935,419.262 159.269,404.429 145.5,383.5C 135.584,367.585 129.75,350.251 128,331.5C 127.333,280.5 127.333,229.5 128,178.5C 128.833,176.333 130.333,174.833 132.5,174C 172.702,164.117 212.702,153.95 252.5,143.5 Z"/></g>
<g><path style="opacity:1" fill="#0a5078" d="M 252.5,176.5 C 285.527,184.34 318.527,192.34 351.5,200.5C 351.667,243.168 351.5,285.835 351,328.5C 347.038,360.278 330.538,382.778 301.5,396C 286.128,401.735 270.794,407.568 255.5,413.5C 235.692,406.733 216.359,398.9 197.5,390C 175.463,375.446 162.963,354.946 160,328.5C 159.5,285.835 159.333,243.168 159.5,200.5C 190.823,193.254 221.823,185.254 252.5,176.5 Z"/></g>
<g><path style="opacity:1" fill="#01335a" d="M 246.5,208.5 C 226.258,213.575 213.425,226.241 208,246.5C 207.5,254.827 207.334,263.16 207.5,271.5C 200.013,271.81 194.846,275.477 192,282.5C 191.333,306.5 191.333,330.5 192,354.5C 193.496,360.491 196.996,364.825 202.5,367.5C 193.66,368.33 187.494,364.663 184,356.5C 183.333,331.833 183.333,307.167 184,282.5C 186.846,275.477 192.013,271.81 199.5,271.5C 196.904,255.184 200.071,240.184 209,226.5C 218.847,214.321 231.347,208.321 246.5,208.5 Z"/></g>
<g><path style="opacity:1" fill="#009fc7" d="M 303.5,271.5 C 298.167,271.5 292.833,271.5 287.5,271.5C 287.666,263.826 287.5,256.159 287,248.5C 283.61,235.61 275.444,227.61 262.5,224.5C 243.253,221.887 230.42,229.887 224,248.5C 223.5,256.159 223.334,263.826 223.5,271.5C 218.167,271.5 212.833,271.5 207.5,271.5C 207.334,263.16 207.5,254.827 208,246.5C 213.425,226.241 226.258,213.575 246.5,208.5C 276.757,205.711 295.591,219.044 303,248.5C 303.5,256.159 303.666,263.826 303.5,271.5 Z"/></g>
<g><path style="opacity:1" fill="#095078" d="M 262.5,224.5 C 261.127,224.343 259.793,224.51 258.5,225C 269.228,229.397 276.062,237.231 279,248.5C 279.5,256.159 279.666,263.826 279.5,271.5C 260.833,271.5 242.167,271.5 223.5,271.5C 223.334,263.826 223.5,256.159 224,248.5C 230.42,229.887 243.253,221.887 262.5,224.5 Z"/></g>
<g><path style="opacity:1" fill="#00335b" d="M 262.5,224.5 C 275.444,227.61 283.61,235.61 287,248.5C 287.5,256.159 287.666,263.826 287.5,271.5C 284.833,271.5 282.167,271.5 279.5,271.5C 279.666,263.826 279.5,256.159 279,248.5C 276.062,237.231 269.228,229.397 258.5,225C 259.793,224.51 261.127,224.343 262.5,224.5 Z"/></g>
<g><path style="opacity:1" fill="#f9b300" d="M 207.5,271.5 C 212.833,271.5 218.167,271.5 223.5,271.5C 242.167,271.5 260.833,271.5 279.5,271.5C 282.167,271.5 284.833,271.5 287.5,271.5C 292.833,271.5 298.167,271.5 303.5,271.5C 311.006,271.835 316.172,275.501 319,282.5C 319.667,306.5 319.667,330.5 319,354.5C 317.5,361.333 313.333,365.5 306.5,367C 271.835,367.5 237.168,367.667 202.5,367.5C 196.996,364.825 193.496,360.491 192,354.5C 191.333,330.5 191.333,306.5 192,282.5C 194.846,275.477 200.013,271.81 207.5,271.5 Z"/></g>
<g><path style="opacity:1" fill="#d2d2d2" d="M 383.5,271.5 C 397.504,271.333 411.504,271.5 425.5,272C 429.277,272.779 431.277,275.112 431.5,279C 431.624,283.352 429.624,286.018 425.5,287C 411.504,287.5 397.504,287.667 383.5,287.5C 383.5,282.167 383.5,276.833 383.5,271.5 Z"/></g>
<g><path style="opacity:1" fill="#053259" d="M 251.5,287.5 C 262.929,286.698 269.596,291.864 271.5,303C 271.13,308.574 268.797,313.074 264.5,316.5C 263.668,326.149 263.168,335.816 263,345.5C 260.305,351.098 256.138,352.598 250.5,350C 249.107,348.829 248.273,347.329 248,345.5C 247.832,335.816 247.332,326.149 246.5,316.5C 239.17,310.382 237.67,303.048 242,294.5C 244.825,291.524 247.992,289.191 251.5,287.5 Z"/></g>
<g><path style="opacity:1" fill="#d2d2d2" d="M 383.5,303.5 C 397.504,303.333 411.504,303.5 425.5,304C 429.277,304.779 431.277,307.112 431.5,311C 431.624,315.352 429.624,318.018 425.5,319C 411.504,319.5 397.504,319.667 383.5,319.5C 383.5,314.167 383.5,308.833 383.5,303.5 Z"/></g>
<g><path style="opacity:1" fill="#d1d2d2" d="M 383.5,331.5 C 383.5,332.833 383.5,334.167 383.5,335.5C 397.504,335.333 411.504,335.5 425.5,336C 430.291,337.412 432.124,340.579 431,345.5C 430.5,348.667 428.667,350.5 425.5,351C 410.17,351.5 394.837,351.667 379.5,351.5C 381.279,344.803 382.612,338.137 383.5,331.5 Z"/></g>
</svg>
